<svg xmlns="http://www.w3.org/2000/svg" xmlns:xlink="http://www.w3.org/1999/xlink" width="55.588" height="149.6" viewBox="0 0 55.588 149.6">
  <defs>
    <linearGradient id="linear-gradient" x1="-7.411" y1="2.316" x2="-7.383" y2="2.316" gradientUnits="objectBoundingBox">
      <stop offset="0" stop-color="#231f20"/>
      <stop offset="0.133" stop-color="#231f20"/>
      <stop offset="0.154" stop-color="#232021"/>
      <stop offset="1" stop-color="#48484a"/>
    </linearGradient>
    <linearGradient id="linear-gradient-2" x1="-9.498" y1="2.788" x2="-9.462" y2="2.788" xlink:href="#linear-gradient"/>
    <linearGradient id="linear-gradient-3" x1="-5.489" y1="0.513" x2="-5.468" y2="0.513" xlink:href="#linear-gradient"/>
    <linearGradient id="linear-gradient-4" x1="-5.201" y1="1.152" x2="-5.181" y2="1.152" xlink:href="#linear-gradient"/>
    <linearGradient id="linear-gradient-5" x1="-6.192" y1="7.159" x2="-6.168" y2="7.159" xlink:href="#linear-gradient"/>
    <linearGradient id="linear-gradient-6" x1="-9.016" y1="5.459" x2="-8.982" y2="5.459" xlink:href="#linear-gradient"/>
  </defs>
  <g id="Group_41827" data-name="Group 41827" transform="translate(-327.781 -273.491)">
    <path id="Path_44780" data-name="Path 44780" d="M336.131,377.321c4.452-8.992,10.269-21.912,10.709-32.279h18.429c.44,10.367,6.707,23.541,10.911,32.279Z" fill="url(#linear-gradient)"/>
    <path id="Path_44781" data-name="Path 44781" d="M366.717,326.048a2.887,2.887,0,0,0,0-5.765c4.559-4.276,6.186-12.7,4.266-17.091-3.09-7.084-6.457-11.025-12.781-20.433a4.917,4.917,0,0,0,2.564-4.578,4.546,4.546,0,0,0-4.778-4.69c-2.7,0-4.284,1.844-4.284,4.69,0,2.044.62,3.748,2.26,4.578-1.729,2.568-4.426,6.455-5.7,8.371l4.426,9.721s.824,1.517-.621,1.562c-1.281.037-1.564-1.389-1.564-1.389L347,293.258c-2.022,3.229-4.45,6.189-6.083,9.934-1.92,4.4-.027,12.815,4.533,17.091a2.887,2.887,0,0,0,0,5.765Z" fill="url(#linear-gradient-2)"/>
    <path id="Path_44782" data-name="Path 44782" d="M381.914,423.091a24.283,24.283,0,0,0-.51-4.12,9.158,9.158,0,0,0-1.738-2.816H331.283a8.043,8.043,0,0,0-1.795,2.721,18.942,18.942,0,0,0-.46,4.215Z" fill="url(#linear-gradient-3)"/>
    <path id="Path_44783" data-name="Path 44783" d="M379.359,415.19c2.131-3.646,4.246-8.633,3.989-14.14-.266-5.668-3.5-11.286-5.916-16.057H334c-2.1,4.336-5.886,9.953-6.191,15.544a27.3,27.3,0,0,0,3.772,14.653Z" fill="url(#linear-gradient-4)"/>
    <path id="Path_44784" data-name="Path 44784" d="M379.6,380.866a3.161,3.161,0,0,0-2.87-2.64H335.07a3.151,3.151,0,0,0-2.748,2.7,2.866,2.866,0,0,0,1.884,3.1c.33,0,14.766,0,20.829,0s22.231,0,22.56,0A3.02,3.02,0,0,0,379.6,380.866Z" fill="url(#linear-gradient-5)"/>
    <path id="Path_44785" data-name="Path 44785" d="M373.09,340.374a4.786,4.786,0,0,0-3.1-4.082h-3.3v-9.385H345.412v9.385h-2.329a4.49,4.49,0,0,0-3.243,3.885c-.227,2.287,2.322,3.715,2.685,3.756.211,0,9.536,0,13.451,0s14.361,0,14.572,0C370.912,343.892,373.312,342.66,373.09,340.374Z" fill="url(#linear-gradient-6)"/>
  </g>
</svg>
