<?xml version="1.0" encoding="iso-8859-1"?>
<!-- Uploaded to: SVG Repo, www.svgrepo.com, Generator: SVG Repo Mixer Tools -->
<svg height="800px" width="800px" version="1.1" id="Capa_1" xmlns="http://www.w3.org/2000/svg" xmlns:xlink="http://www.w3.org/1999/xlink" 
	 viewBox="0 0 470 470" xml:space="preserve">
<g>
	<path style="fill:#F59B45;" d="M343.382,285.902c36.849,0,68.127,24.287,78.683,57.693h28.817V267.26H19.118v76.335h4.511
		c4.143,0,7.5,3.358,7.5,7.5h14.831c7.976-37.207,41.105-65.193,80.659-65.193c36.849,0,68.127,24.287,78.683,57.693h35.091
		c4.143,0,7.5,3.358,7.5,7.5h14.832C270.699,313.888,303.828,285.902,343.382,285.902z"/>
	<path style="fill:#34150C;" d="M240.392,343.595h-35.091c-10.556-33.406-41.833-57.693-78.683-57.693
		c-39.554,0-72.682,27.986-80.659,65.193c-1.197,5.584-1.841,11.371-1.841,17.307c0,45.491,37.01,82.5,82.5,82.5
		s82.5-37.009,82.5-82.5c0-3.32-0.22-6.588-0.603-9.807h31.876c4.143,0,7.5-3.358,7.5-7.5S244.534,343.595,240.392,343.595z
		 M59.118,368.402c0-9.612,2.033-18.753,5.67-27.037l39.713,22.928c-0.247,1.333-0.383,2.705-0.383,4.109s0.136,2.776,0.383,4.109
		L64.788,395.44C61.151,387.155,59.118,378.014,59.118,368.402z M112.012,351.309l-39.709-22.926
		c10.901-14.757,27.661-24.926,46.816-27.054v45.864C116.491,348.124,114.089,349.531,112.012,351.309z M126.618,375.902
		c-4.136,0-7.5-3.365-7.5-7.5s3.364-7.5,7.5-7.5s7.5,3.365,7.5,7.5S130.754,375.902,126.618,375.902z M134.118,301.329
		c19.155,2.128,35.914,12.297,46.816,27.054l-39.709,22.926c-2.077-1.778-4.479-3.185-7.106-4.117V301.329z M148.735,364.293
		l39.713-22.928c3.637,8.284,5.67,17.426,5.67,27.037s-2.033,18.753-5.67,27.037l-39.713-22.928
		c0.247-1.333,0.383-2.705,0.383-4.109S148.983,365.626,148.735,364.293z M72.302,408.422l39.709-22.926
		c2.077,1.778,4.479,3.185,7.106,4.117v45.864C99.963,433.348,83.204,423.178,72.302,408.422z M134.118,435.476v-45.864
		c2.627-0.932,5.029-2.339,7.106-4.117l39.709,22.926C170.032,423.178,153.273,433.348,134.118,435.476z"/>
	<path style="fill:#34150C;" d="M458.382,252.26H11.618c-4.143,0-7.5,3.358-7.5,7.5v91.335c0,4.142,3.357,7.5,7.5,7.5h12.011
		c4.143,0,7.5-3.358,7.5-7.5s-3.357-7.5-7.5-7.5h-4.511V267.26h431.764v76.335h-28.817c-10.556-33.406-41.833-57.693-78.683-57.693
		c-39.554,0-72.682,27.986-80.659,65.193c-1.197,5.584-1.841,11.371-1.841,17.307c0,45.491,37.01,82.5,82.5,82.5
		s82.5-37.009,82.5-82.5c0-3.32-0.22-6.588-0.603-9.807h33.103c4.143,0,7.5-3.358,7.5-7.5V259.76
		C465.882,255.618,462.524,252.26,458.382,252.26z M275.882,368.402c0-9.612,2.033-18.753,5.67-27.037l39.713,22.928
		c-0.247,1.333-0.383,2.705-0.383,4.109s0.136,2.776,0.383,4.109l-39.713,22.928C277.915,387.155,275.882,378.014,275.882,368.402z
		 M328.775,351.309l-39.709-22.926c10.901-14.757,27.661-24.926,46.816-27.054v45.864
		C333.255,348.124,330.853,349.531,328.775,351.309z M343.382,375.902c-4.136,0-7.5-3.365-7.5-7.5s3.364-7.5,7.5-7.5
		s7.5,3.365,7.5,7.5S347.518,375.902,343.382,375.902z M350.882,301.329c19.155,2.128,35.914,12.297,46.816,27.054l-39.709,22.926
		c-2.077-1.778-4.479-3.185-7.106-4.117V301.329z M365.499,364.293l39.713-22.928c3.637,8.284,5.67,17.426,5.67,27.037
		s-2.033,18.753-5.67,27.037l-39.713-22.928c0.247-1.333,0.383-2.705,0.383-4.109S365.746,365.626,365.499,364.293z
		 M289.066,408.422l39.709-22.926c2.077,1.778,4.479,3.185,7.106,4.117v45.864C316.727,433.348,299.968,423.178,289.066,408.422z
		 M350.882,435.476v-45.864c2.627-0.932,5.029-2.339,7.106-4.117l39.709,22.926C386.796,423.178,370.037,433.348,350.882,435.476z"
		/>
	<path style="fill:#E3C498;" d="M113.75,116.598c0-4.142,3.357-7.5,7.5-7.5s7.5,3.358,7.5,7.5V222.26h99.673
		c-0.587-1.07-0.923-2.297-0.923-3.604V42.665c-14.031,9.475-31.296,14.734-49.375,14.734c-18.079,0-35.344-5.258-49.375-14.734
		v43.933c0,4.142-3.357,7.5-7.5,7.5s-7.5-3.358-7.5-7.5V42.665c-14.031,9.475-31.296,14.734-49.375,14.734
		c-18.074,0-35.347-5.237-49.375-14.707V222.26h98.75V116.598z"/>
	<path style="fill:#E3C498;" d="M356.25,42.665v126.441c0,4.142-3.357,7.5-7.5,7.5s-7.5-3.358-7.5-7.5V42.665
		c-14.031,9.475-31.296,14.734-49.375,14.734c-18.08,0-35.344-5.258-49.375-14.733v175.991c0,1.306-0.335,2.534-0.923,3.604h99.673
		v-23.154c0-4.142,3.357-7.5,7.5-7.5s7.5,3.358,7.5,7.5v23.154H455V42.692c-14.028,9.47-31.301,14.707-49.375,14.707
		C387.546,57.399,370.281,52.141,356.25,42.665z"/>
	<path style="fill:#34150C;" d="M465.279,19.632c-2.854-1.138-6.107-0.423-8.22,1.804c-12.642,13.323-31.389,20.963-51.435,20.963
		s-38.793-7.641-51.435-20.963c-0.021-0.022-0.044-0.041-0.066-0.062c-0.103-0.106-0.212-0.205-0.321-0.305
		c-0.074-0.068-0.146-0.138-0.223-0.203c-0.12-0.102-0.247-0.195-0.374-0.289c-0.071-0.052-0.139-0.108-0.211-0.158
		c-0.154-0.106-0.314-0.202-0.475-0.296c-0.05-0.029-0.098-0.063-0.149-0.091c-0.209-0.115-0.423-0.22-0.643-0.316
		c-0.927-0.4-1.927-0.618-2.979-0.618c-1.051,0-2.051,0.218-2.959,0.609c-0.241,0.106-0.455,0.21-0.663,0.325
		c-0.051,0.028-0.099,0.061-0.149,0.091c-0.162,0.094-0.322,0.19-0.475,0.296c-0.072,0.05-0.14,0.105-0.211,0.158
		c-0.127,0.094-0.254,0.188-0.374,0.289c-0.077,0.065-0.149,0.135-0.223,0.203c-0.109,0.1-0.218,0.199-0.321,0.305
		c-0.021,0.022-0.045,0.04-0.066,0.062c-12.642,13.323-31.389,20.963-51.435,20.963c-20.047,0-38.794-7.641-51.435-20.963
		c-0.021-0.022-0.044-0.041-0.066-0.062c-0.103-0.106-0.212-0.205-0.321-0.305c-0.074-0.068-0.146-0.138-0.223-0.203
		c-0.12-0.102-0.247-0.195-0.374-0.289c-0.071-0.052-0.139-0.108-0.211-0.158c-0.154-0.106-0.314-0.202-0.475-0.296
		c-0.05-0.029-0.098-0.063-0.149-0.091c-0.209-0.115-0.423-0.22-0.643-0.316c-0.927-0.4-1.927-0.618-2.979-0.618
		c-1.051,0-2.051,0.218-2.959,0.609c-0.241,0.106-0.455,0.21-0.663,0.325c-0.051,0.028-0.099,0.061-0.149,0.091
		c-0.162,0.094-0.322,0.19-0.475,0.296c-0.072,0.05-0.14,0.105-0.211,0.158c-0.127,0.094-0.254,0.188-0.374,0.289
		c-0.077,0.065-0.149,0.135-0.223,0.203c-0.109,0.1-0.218,0.199-0.321,0.305c-0.021,0.022-0.045,0.04-0.066,0.062
		c-12.642,13.323-31.389,20.963-51.435,20.963s-38.793-7.641-51.435-20.963c-0.021-0.022-0.044-0.041-0.066-0.062
		c-0.103-0.106-0.212-0.205-0.321-0.305c-0.074-0.068-0.146-0.138-0.223-0.203c-0.12-0.102-0.247-0.195-0.374-0.289
		c-0.071-0.052-0.139-0.108-0.211-0.158c-0.154-0.106-0.314-0.202-0.475-0.296c-0.05-0.029-0.098-0.063-0.149-0.091
		c-0.209-0.115-0.423-0.22-0.643-0.316c-0.927-0.4-1.927-0.618-2.979-0.618c-1.051,0-2.051,0.218-2.959,0.609
		c-0.241,0.106-0.455,0.21-0.663,0.325c-0.051,0.028-0.099,0.061-0.149,0.091c-0.162,0.094-0.322,0.19-0.475,0.296
		c-0.072,0.05-0.14,0.105-0.211,0.158c-0.127,0.094-0.254,0.188-0.374,0.289c-0.077,0.065-0.149,0.135-0.223,0.203
		c-0.109,0.1-0.218,0.199-0.321,0.305c-0.021,0.022-0.045,0.04-0.066,0.062c-12.642,13.323-31.389,20.963-51.435,20.963
		S25.582,34.758,12.94,21.436c-2.112-2.227-5.368-2.94-8.22-1.804C1.87,20.769,0,23.529,0,26.598V229.76c0,4.142,3.357,7.5,7.5,7.5
		h455c4.143,0,7.5-3.358,7.5-7.5V26.598C470,23.529,468.13,20.769,465.279,19.632z M15,42.692
		c14.028,9.47,31.301,14.707,49.375,14.707c18.079,0,35.344-5.258,49.375-14.734v43.933c0,4.142,3.357,7.5,7.5,7.5
		s7.5-3.358,7.5-7.5V42.665c14.031,9.475,31.296,14.734,49.375,14.734c18.079,0,35.344-5.258,49.375-14.734v175.991
		c0,1.306,0.335,2.534,0.923,3.604H128.75V116.598c0-4.142-3.357-7.5-7.5-7.5s-7.5,3.358-7.5,7.5V222.26H15V42.692z M455,222.26
		h-98.75v-23.154c0-4.142-3.357-7.5-7.5-7.5s-7.5,3.358-7.5,7.5v23.154h-99.673c0.587-1.07,0.923-2.297,0.923-3.604V42.666
		c14.031,9.475,31.295,14.733,49.375,14.733c18.079,0,35.344-5.258,49.375-14.734v126.441c0,4.142,3.357,7.5,7.5,7.5
		s7.5-3.358,7.5-7.5V42.665c14.031,9.475,31.296,14.734,49.375,14.734c18.074,0,35.347-5.237,49.375-14.707V222.26z"/>
</g>
</svg>