<?xml version="1.0" encoding="UTF-8" standalone="no"?>
<svg
   width="52.543"
   height="149.602"
   viewBox="0 0 52.543 149.602"
   version="1.1"
   id="svg25"
   sodipodi:docname="king.svg"
   inkscape:version="1.2.2 (b0a8486541, 2022-12-01)"
   xmlns:inkscape="http://www.inkscape.org/namespaces/inkscape"
   xmlns:sodipodi="http://sodipodi.sourceforge.net/DTD/sodipodi-0.dtd"
   xmlns:xlink="http://www.w3.org/1999/xlink"
   xmlns="http://www.w3.org/2000/svg"
   xmlns:svg="http://www.w3.org/2000/svg">
  <sodipodi:namedview
     id="namedview27"
     pagecolor="#ffffff"
     bordercolor="#666666"
     borderopacity="1.0"
     inkscape:showpageshadow="2"
     inkscape:pageopacity="0.0"
     inkscape:pagecheckerboard="0"
     inkscape:deskcolor="#d1d1d1"
     showgrid="false"
     inkscape:zoom="3.72455"
     inkscape:cx="-67.256448"
     inkscape:cy="74.102912"
     inkscape:window-width="1920"
     inkscape:window-height="986"
     inkscape:window-x="-11"
     inkscape:window-y="-11"
     inkscape:window-maximized="1"
     inkscape:current-layer="svg25" />
  <defs
     id="defs16">
    <linearGradient
       id="linear-gradient"
       x1="-1.997"
       y1="0.372"
       x2="-1.978"
       y2="0.372"
       gradientUnits="objectBoundingBox">
      <stop
         offset="0"
         stop-color="#231f20"
         id="stop2" />
      <stop
         offset="0.133"
         stop-color="#231f20"
         id="stop4" />
      <stop
         offset="0.154"
         stop-color="#232021"
         id="stop6" />
      <stop
         offset="1"
         stop-color="#48484a"
         id="stop8" />
    </linearGradient>
    <linearGradient
       id="linear-gradient-2"
       x1="-1.941"
       y1="1.117"
       x2="-1.922"
       y2="1.117"
       xlink:href="#linear-gradient" />
    <linearGradient
       id="linear-gradient-3"
       x1="-2.353"
       y1="6.963"
       x2="-2.332"
       y2="6.963"
       xlink:href="#linear-gradient" />
    <linearGradient
       id="linear-gradient-4"
       x1="-2.767"
       y1="1.771"
       x2="-2.742"
       y2="1.771"
       xlink:href="#linear-gradient" />
    <linearGradient
       id="linear-gradient-5"
       x1="-6.504"
       y1="7.826"
       x2="-6.452"
       y2="7.826"
       xlink:href="#linear-gradient" />
    <linearGradient
       id="linear-gradient-6"
       x1="-2.463"
       y1="2.384"
       x2="-2.441"
       y2="2.384"
       xlink:href="#linear-gradient" />
  </defs>
  <g
     id="g4396">
    <g
       id="Group_41825"
       data-name="Group 41825"
       transform="translate(-139.627 -273.489)">
      <path
         id="Path_44770"
         data-name="Path 44770"
         d="M191.582,423.091a14.558,14.558,0,0,0-.514-3.164,7.1,7.1,0,0,0-1.745-2.16H142.484a6.421,6.421,0,0,0-1.8,2.086,11.281,11.281,0,0,0-.46,3.238Z"
         fill="url(#linear-gradient)" />
      <path
         id="Path_44771"
         data-name="Path 44771"
         d="M189.017,417.025a15,15,0,0,0,3.119-10.409c-.269-4.348-2.622-9.111-5.057-12.771H145.217c-2.11,3.328-5.24,7.648-5.545,11.94a16.922,16.922,0,0,0,3.119,11.24Z"
         fill="url(#linear-gradient-2)" />
      <path
         id="Path_44772"
         data-name="Path 44772"
         d="M188.81,390.679a2.613,2.613,0,0,0-2.435-2.03H146.292a2.616,2.616,0,0,0-2.435,2.03,2.121,2.121,0,0,0,1.565,2.424c.33.005,14.824,0,20.913,0s20.579,0,20.91,0A2.118,2.118,0,0,0,188.81,390.679Z"
         fill="url(#linear-gradient-3)" />
      <path
         id="Path_44773"
         data-name="Path 44773"
         d="M185.938,387.986c-5.223-11.928-10.2-18.493-11.612-41.015H157.481c-1.41,22.522-5.629,29.087-10.853,41.015Z"
         fill="url(#linear-gradient-4)" />
      <path
         id="Path_44775"
         data-name="Path 44775"
         d="M187.522,305.189a7.772,7.772,0,0,0-7.686-7.854c-1.227,0-3.133,0-4.362,0V295.41a2.227,2.227,0,0,0-2.2-2.25H158.539a2.227,2.227,0,0,0-2.2,2.25v1.929c-1.231,0-3.136,0-4.363,0a7.773,7.773,0,0,0-7.687,7.854,10.618,10.618,0,0,0,1.764,5.32c1.28,2.07,9.548,14.417,9.548,14.417l-.758,13.389h-2.318a4.568,4.568,0,0,0-3.232,4.006c-.227,2.358,2.317,3.83,2.677,3.872.211.005,9.5,0,13.4,0s14.313,0,14.525,0a3.808,3.808,0,0,0,2.529-3.667,4.889,4.889,0,0,0-3.085-4.211h-2.374l-.654-13.722s8.164-12.014,9.446-14.084A10.624,10.624,0,0,0,187.522,305.189Z"
         fill="url(#linear-gradient-6)" />
    </g>
    <circle
       style="fill:#48484a;fill-opacity:1;stroke:#48484a;stroke-width:0.15;stroke-linecap:round;stroke-dasharray:none;stroke-opacity:1"
       id="path639"
       cx="25.345009"
       cy="9.3975878"
       r="8.7258272" />
  </g>
</svg>
