<!DOCTYPE svg PUBLIC "-//W3C//DTD SVG 1.1//EN" "http://www.w3.org/Graphics/SVG/1.1/DTD/svg11.dtd">
<!-- Uploaded to: SVG Repo, www.svgrepo.com, Transformed by: SVG Repo Mixer Tools -->
<svg height="800px" width="800px" version="1.1" id="Layer_1" xmlns="http://www.w3.org/2000/svg" xmlns:xlink="http://www.w3.org/1999/xlink" viewBox="0 0 511.994 511.994" xml:space="preserve" fill="#000000">
<g id="SVGRepo_bgCarrier" stroke-width="0"/>
<g id="SVGRepo_tracerCarrier" stroke-linecap="round" stroke-linejoin="round"/>
<g id="SVGRepo_iconCarrier"> <polygon style="fill:#FFFFFF;" points="442.182,325.815 126.348,325.815 93.091,116.36 488.727,116.36 "/> <path style="fill:#F59B45;" d="M411.229,314.179H139.636l-34.909-186.182h360.727L434.106,295.2 C432.035,306.208,422.435,314.179,411.229,314.179z"/> <g> <circle style="fill:#E3C498;" cx="197.818" cy="442.179" r="34.909"/> <circle style="fill:#E3C498;" cx="407.273" cy="442.179" r="34.909"/> </g> <path style="fill:#34150C;" d="M465.455,395.633H162.909c-19.247,0-34.909-15.663-34.909-34.909v-11.636h287.663 c27.636,0,51.642-19.665,57.053-46.778l39.052-195.305c0.687-3.421-0.209-6.97-2.409-9.658c-2.211-2.688-5.504-4.259-8.995-4.259 H90.543l-9.228-59.951c-0.873-5.679-5.76-9.868-11.497-9.868H11.636C5.201,23.27,0,28.471,0,34.906s5.201,11.636,11.636,11.636 h48.198l44.893,291.793v22.388c0,30.406,23.529,55.156,53.283,57.681c-4.177,6.982-6.737,15.057-6.737,23.773 c0,25.67,20.876,46.545,46.545,46.545s46.545-20.876,46.545-46.545c0-8.518-2.467-16.396-6.47-23.273h129.303 c-4.003,6.877-6.47,14.755-6.47,23.273c0,25.67,20.876,46.545,46.545,46.545s46.545-20.876,46.545-46.545 c0-8.518-2.467-16.396-6.47-23.273h18.106c6.435,0,11.636-5.201,11.636-11.636C477.091,400.835,471.889,395.633,465.455,395.633z M460.579,244.36h-53.306v-46.545h62.604L460.579,244.36z M384,244.36h-46.545v-46.545H384V244.36z M126.348,325.815l-8.948-58.182 h57.146v58.182H126.348z M197.818,267.633h46.545v58.182h-46.545V267.633z M267.636,267.633h46.545v58.182h-46.545V267.633z M267.636,244.36v-46.545h46.545v46.545H267.636z M337.455,267.633H384v58.182h-46.545V267.633z M337.455,174.542V116.36H384v58.182 H337.455z M314.182,174.542h-46.545V116.36h46.545V174.542z M244.364,174.542h-46.545V116.36h46.545V174.542z M244.364,197.815 v46.545h-46.545v-46.545H244.364z M174.545,244.36h-60.73l-7.156-46.545h67.887V244.36z M415.663,325.815h-8.39v-58.182h48.652 l-6.028,30.115C446.65,314.004,432.244,325.815,415.663,325.815z M474.531,174.542h-67.258V116.36h78.895L474.531,174.542z M174.545,116.36v58.182h-69.818c-0.57,0-1.059,0.244-1.606,0.326l-8.995-58.508H174.545z M221.091,442.179 c0,12.835-10.438,23.273-23.273,23.273s-23.273-10.438-23.273-23.273c0-12.835,10.438-23.273,23.273-23.273 S221.091,429.344,221.091,442.179z M430.545,442.179c0,12.835-10.438,23.273-23.273,23.273c-12.835,0-23.273-10.438-23.273-23.273 c0-12.835,10.438-23.273,23.273-23.273C420.108,418.906,430.545,429.344,430.545,442.179z"/> </g>
</svg>