<svg xmlns="http://www.w3.org/2000/svg" xmlns:xlink="http://www.w3.org/1999/xlink" width="68.707" height="149.601" viewBox="0 0 68.707 149.601">
  <defs>
    <linearGradient id="linear-gradient" x1="0.05" y1="0.545" x2="0.072" y2="0.545" gradientUnits="objectBoundingBox">
      <stop offset="0" stop-color="#231f20"/>
      <stop offset="0.133" stop-color="#231f20"/>
      <stop offset="0.154" stop-color="#232021"/>
      <stop offset="1" stop-color="#48484a"/>
    </linearGradient>
    <linearGradient id="linear-gradient-2" x1="0.061" y1="1.162" x2="0.082" y2="1.162" xlink:href="#linear-gradient"/>
    <linearGradient id="linear-gradient-3" x1="-0.027" y1="7.227" x2="-0.002" y2="7.227" xlink:href="#linear-gradient"/>
    <linearGradient id="linear-gradient-4" x1="-0.077" y1="1.459" x2="-0.05" y2="1.459" xlink:href="#linear-gradient"/>
  </defs>
  <g id="Group_41826" data-name="Group 41826" transform="translate(-32.449 -273.49)">
    <path id="Path_44776" data-name="Path 44776" d="M100.344,423.091a20.257,20.257,0,0,0-.711-4.381,9.811,9.811,0,0,0-2.407-3H36.394a8.853,8.853,0,0,0-2.483,2.892,15.615,15.615,0,0,0-.634,4.487Z" fill="url(#linear-gradient)"/>
    <path id="Path_44777" data-name="Path 44777" d="M96.8,414.685a20.825,20.825,0,0,0,4.306-14.426c-.37-6.03-3.618-12.625-6.981-17.7H40.166c-2.914,4.616-7.233,10.6-7.654,16.549a23.5,23.5,0,0,0,4.306,15.58Z" fill="url(#linear-gradient-2)"/>
    <path id="Path_44778" data-name="Path 44778" d="M96.517,378.173a3.61,3.61,0,0,0-3.359-2.817H41.65a3.616,3.616,0,0,0-3.362,2.817,2.942,2.942,0,0,0,2.162,3.359c.458,0,16.634,0,25.039,0s28.411,0,28.868,0A2.939,2.939,0,0,0,96.517,378.173Z" fill="url(#linear-gradient-3)"/>
    <path id="Path_44779" data-name="Path 44779" d="M87.363,327.974c.532-.076,5.831-2.838,5.494-7.309-.388-5.594-5.814-7.639-6.321-7.639H75.61l-.015-.152a20.473,20.473,0,1,0-17.729,0l-.013.152H46.764a8.755,8.755,0,0,0-6.106,7.639c-.333,4.471,4.746,7.233,5.279,7.309.189.007,5.336.007,10.648,0-2.025,12.482-8.3,33.548-13.669,46.251h49.5c-5.886-11.066-13.514-33.762-15.544-46.251C82.218,327.981,87.186,327.981,87.363,327.974Z" fill="url(#linear-gradient-4)"/>
  </g>
</svg>
