<svg xmlns="http://www.w3.org/2000/svg" xmlns:xlink="http://www.w3.org/1999/xlink" width="79.992" height="149.602" viewBox="0 0 79.992 149.602">
  <defs>
    <linearGradient id="linear-gradient" x1="-5.434" y1="5.257" x2="-5.415" y2="5.257" gradientUnits="objectBoundingBox">
      <stop offset="0" stop-color="#231f20"/>
      <stop offset="0.133" stop-color="#231f20"/>
      <stop offset="0.154" stop-color="#232021"/>
      <stop offset="1" stop-color="#48484a"/>
    </linearGradient>
    <linearGradient id="linear-gradient-2" x1="-7.536" y1="2.053" x2="-7.51" y2="2.053" xlink:href="#linear-gradient"/>
    <linearGradient id="linear-gradient-3" x1="-4.882" y1="0.625" x2="-4.865" y2="0.625" xlink:href="#linear-gradient"/>
    <linearGradient id="linear-gradient-4" x1="-4.788" y1="1.178" x2="-4.771" y2="1.178" xlink:href="#linear-gradient"/>
    <linearGradient id="linear-gradient-5" x1="-5.912" y1="7.307" x2="-5.892" y2="7.307" xlink:href="#linear-gradient"/>
    <linearGradient id="linear-gradient-6" x1="-7.239" y1="13.763" x2="-7.215" y2="13.763" xlink:href="#linear-gradient"/>
  </defs>
  <g id="Group_41824" data-name="Group 41824" transform="translate(-421.84 -273.489)">
    <path id="Path_44764" data-name="Path 44764" d="M484.211,301.429a44,44,0,0,0,9.068-11.82c3.257-6.657,4.065-16.12,4.065-16.12h-17.75l1.264,13.1h-12.44l1.264-13.1h-15.9l1.262,13.1H442.605l1.262-13.1H426.12a49.6,49.6,0,0,0,4.064,16.12c3.693,8.2,9.07,11.82,9.07,11.82Z" fill="url(#linear-gradient)"/>
    <path id="Path_44765" data-name="Path 44765" d="M435.587,364.811l5.021-52.6h42.459l5.024,52.6Z" fill="url(#linear-gradient-2)"/>
    <path id="Path_44766" data-name="Path 44766" d="M501.064,423.091s-.6-2.928-1.162-4.616-3.033-4.185-3.033-4.185H426.71a10.614,10.614,0,0,0-2.925,3.581,43.976,43.976,0,0,0-1.3,5.22Z" fill="url(#linear-gradient-3)"/>
    <path id="Path_44767" data-name="Path 44767" d="M496.428,413.065c3.09-4.629,5.743-10.692,5.368-17.678-.39-7.193-5.948-14.588-9.467-20.638H432.824c-3.045,5.5-10.494,13.544-10.935,20.638s2.171,13.049,5.261,17.678Z" fill="url(#linear-gradient-4)"/>
    <path id="Path_44768" data-name="Path 44768" d="M495.064,369.509a4.31,4.31,0,0,0-3.994-3.352H433.08a4.267,4.267,0,0,0-3.828,3.432c-.492,2.2,1.844,3.9,2.617,3.933.456.007,20.557,0,29,0s30.952.007,31.412,0C493.055,373.486,495.557,371.711,495.064,369.509Z" fill="url(#linear-gradient-5)"/>
    <path id="Path_44769" data-name="Path 44769" d="M489.176,306.526a4.441,4.441,0,0,0-3.992-3.81H438.545a4.444,4.444,0,0,0-3.829,3.9c-.488,2.505,3.434,4.6,4.206,4.644.457.007,13.924-.168,22.367-.168s23.224.005,23.681,0C485.748,311.05,489.668,309.034,489.176,306.526Z" fill="url(#linear-gradient-6)"/>
  </g>
</svg>
