<svg xmlns="http://www.w3.org/2000/svg" xmlns:xlink="http://www.w3.org/1999/xlink" width="68.706" height="149.602" viewBox="0 0 68.706 149.602">
  <defs>
    <linearGradient id="linear-gradient" x1="0.048" y1="30.666" x2="0.069" y2="30.666" gradientUnits="objectBoundingBox">
      <stop offset="0" stop-color="#cbccce"/>
      <stop offset="0.661" stop-color="#ebecec"/>
      <stop offset="1" stop-color="#fff"/>
    </linearGradient>
    <linearGradient id="linear-gradient-2" x1="0.059" y1="7.859" x2="0.08" y2="7.859" xlink:href="#linear-gradient"/>
    <linearGradient id="linear-gradient-3" x1="-0.031" y1="44.2" x2="-0.006" y2="44.2" xlink:href="#linear-gradient"/>
    <linearGradient id="linear-gradient-4" x1="-0.082" y1="3.583" x2="-0.054" y2="3.583" xlink:href="#linear-gradient"/>
  </defs>
  <g id="Group_41832" data-name="Group 41832" transform="translate(-32.45 -61.944)">
    <path id="Path_44868" data-name="Path 44868" d="M33.458,211.365a14.668,14.668,0,0,1,.619-4.241,8.745,8.745,0,0,1,2.425-2.816l60.72.036a11.065,11.065,0,0,1,2.242,2.878,18.848,18.848,0,0,1,.686,4.143Z" fill="url(#linear-gradient)"/>
    <path id="Path_44869" data-name="Path 44869" d="M97.09,204.524a9.094,9.094,0,0,1,2.205,2.762,17.626,17.626,0,0,1,.66,3.9H33.643a13.872,13.872,0,0,1,.6-3.992,8.242,8.242,0,0,1,2.275-2.669H97.09m.135-.361H36.394a8.9,8.9,0,0,0-2.483,2.892,15.659,15.659,0,0,0-.635,4.491h67.067a20.235,20.235,0,0,0-.712-4.388A9.84,9.84,0,0,0,97.225,204.163Z" fill="#a6a8ab"/>
    <path id="Path_44870" data-name="Path 44870" d="M36.908,202.957a23.394,23.394,0,0,1-4.216-15.387c.367-5.2,3.792-10.509,6.543-14.773q.534-.828,1.031-1.608H94.028c2.423,3.669,6.482,10.75,6.9,17.535a20.584,20.584,0,0,1-4.216,14.233Z" fill="url(#linear-gradient-2)"/>
    <path id="Path_44871" data-name="Path 44871" d="M93.932,171.369c2.418,3.677,6.4,10.672,6.816,17.365a20.4,20.4,0,0,1-4.127,14.042H37a23.224,23.224,0,0,1-4.125-15.193c.365-5.153,3.773-10.44,6.514-14.688q.505-.785.978-1.526H93.932m.194-.359H40.165c-2.912,4.612-7.231,10.6-7.653,16.549a23.507,23.507,0,0,0,4.306,15.578H96.8a20.845,20.845,0,0,0,4.307-14.424C100.736,182.685,97.488,176.083,94.126,171.01Z" fill="#a6a8ab"/>
    <path id="Path_44872" data-name="Path 44872" d="M40.452,169.8a2.613,2.613,0,0,1-1.536-1.087,2.377,2.377,0,0,1-.453-2.047,3.425,3.425,0,0,1,3.188-2.679H93.157a3.417,3.417,0,0,1,3.183,2.676,2.373,2.373,0,0,1-.451,2.05,2.606,2.606,0,0,1-1.54,1.087c-.223,0-5.339.005-11.448.005C82.9,169.807,40.681,169.806,40.452,169.8Z" fill="url(#linear-gradient-3)"/>
    <path id="Path_44873" data-name="Path 44873" d="M93.157,164.17a3.237,3.237,0,0,1,3.01,2.544,2.2,2.2,0,0,1-.422,1.893,2.517,2.517,0,0,1-1.394,1.015c-.2,0-4.156,0-11.45,0l-17.413,0-15.5,0c-6.039,0-9.337,0-9.525,0a2.5,2.5,0,0,1-1.4-1.015,2.2,2.2,0,0,1-.421-1.9,3.239,3.239,0,0,1,3.012-2.539H93.157m0-.361H41.651a3.615,3.615,0,0,0-3.363,2.813,2.941,2.941,0,0,0,2.162,3.36c.229,0,4.387,0,9.538,0l15.5,0,17.413,0c6.11,0,11.226,0,11.455,0a2.939,2.939,0,0,0,2.16-3.36A3.61,3.61,0,0,0,93.157,163.809Z" fill="#a6a8ab"/>
    <path id="Path_44874" data-name="Path 44874" d="M43.187,162.5c5.4-12.873,11.6-33.876,13.576-46.038l.034-.209-10.853,0c-.347-.053-5.437-2.671-5.106-7.118a8.632,8.632,0,0,1,5.924-7.469H58.019l.036-.445-.11-.053A20.667,20.667,0,0,1,46.44,82.641a20.292,20.292,0,1,1,40.582,0,20.668,20.668,0,0,1-11.506,18.522l-.112.054.04.444H86.536c.436,0,5.76,2,6.141,7.468.332,4.424-4.96,7.064-5.342,7.122l-10.672,0,.035.209c2.036,12.522,9.5,34.772,15.423,46.038Z" fill="url(#linear-gradient-4)"/>
    <path id="Path_44875" data-name="Path 44875" d="M66.732,62.306a20.246,20.246,0,0,1,20.11,20.335A20.488,20.488,0,0,1,75.437,101l-.224.108.022.248.014.157.03.328H86.527c.535.044,5.6,2.036,5.969,7.3.318,4.218-4.755,6.839-5.146,6.925-.075,0-1,.006-4.979.006l-5.5,0h-.423l.068.419c2.023,12.441,9.394,34.469,15.3,45.829H43.458c5.385-12.905,11.519-33.734,13.482-45.829l.07-.419h-.425l-5.527,0c-3.1,0-4.351,0-4.816,0-.18,0-.242,0-.247,0-.419-.089-5.293-2.7-4.977-6.931a8.478,8.478,0,0,1,5.744-7.3H58.185l.026-.332.014-.156.02-.246L58.024,101a20.487,20.487,0,0,1-11.4-18.36A20.247,20.247,0,0,1,66.732,62.306m0-.362a20.754,20.754,0,0,0-8.865,39.381l-.015.156H46.762a8.748,8.748,0,0,0-6.1,7.635c-.334,4.472,4.745,7.234,5.278,7.313.12,0,2.234,0,5.121,0h5.527c-2.026,12.478-8.305,33.548-13.67,46.248h49.5c-5.886-11.066-13.514-33.762-15.546-46.248h5.5c2.84,0,4.879,0,4.991,0,.532-.079,5.829-2.841,5.494-7.313-.388-5.59-5.815-7.635-6.32-7.635H75.608l-.014-.156a20.753,20.753,0,0,0-8.862-39.381Z" fill="#a6a8ab"/>
    <path id="Path_44876" data-name="Path 44876" d="M33.458,211.365a14.668,14.668,0,0,1,.619-4.241,8.745,8.745,0,0,1,2.425-2.816l60.72.036a11.065,11.065,0,0,1,2.242,2.878,18.848,18.848,0,0,1,.686,4.143Z" fill="url(#linear-gradient)"/>
    <path id="Path_44877" data-name="Path 44877" d="M97.09,204.524a9.094,9.094,0,0,1,2.205,2.762,17.626,17.626,0,0,1,.66,3.9H33.643a13.872,13.872,0,0,1,.6-3.992,8.242,8.242,0,0,1,2.275-2.669H97.09m.135-.361H36.394a8.9,8.9,0,0,0-2.483,2.892,15.659,15.659,0,0,0-.635,4.491h67.067a20.235,20.235,0,0,0-.712-4.388A9.84,9.84,0,0,0,97.225,204.163Z" fill="#a6a8ab"/>
    <path id="Path_44878" data-name="Path 44878" d="M36.908,202.957a23.394,23.394,0,0,1-4.216-15.387c.367-5.2,3.792-10.509,6.543-14.773q.534-.828,1.031-1.608H94.028c2.423,3.669,6.482,10.75,6.9,17.535a20.584,20.584,0,0,1-4.216,14.233Z" fill="url(#linear-gradient-2)"/>
    <path id="Path_44879" data-name="Path 44879" d="M93.932,171.369c2.418,3.677,6.4,10.672,6.816,17.365a20.4,20.4,0,0,1-4.127,14.042H37a23.224,23.224,0,0,1-4.125-15.193c.365-5.153,3.773-10.44,6.514-14.688q.505-.785.978-1.526H93.932m.194-.359H40.165c-2.912,4.612-7.231,10.6-7.653,16.549a23.507,23.507,0,0,0,4.306,15.578H96.8a20.845,20.845,0,0,0,4.307-14.424C100.736,182.685,97.488,176.083,94.126,171.01Z" fill="#a6a8ab"/>
    <path id="Path_44880" data-name="Path 44880" d="M40.452,169.8a2.613,2.613,0,0,1-1.536-1.087,2.377,2.377,0,0,1-.453-2.047,3.425,3.425,0,0,1,3.188-2.679H93.157a3.417,3.417,0,0,1,3.183,2.676,2.373,2.373,0,0,1-.451,2.05,2.606,2.606,0,0,1-1.54,1.087c-.223,0-5.339.005-11.448.005C82.9,169.807,40.681,169.806,40.452,169.8Z" fill="url(#linear-gradient-3)"/>
    <path id="Path_44881" data-name="Path 44881" d="M93.157,164.17a3.237,3.237,0,0,1,3.01,2.544,2.2,2.2,0,0,1-.422,1.893,2.517,2.517,0,0,1-1.394,1.015c-.2,0-4.156,0-11.45,0l-17.413,0-15.5,0c-6.039,0-9.337,0-9.525,0a2.5,2.5,0,0,1-1.4-1.015,2.2,2.2,0,0,1-.421-1.9,3.239,3.239,0,0,1,3.012-2.539H93.157m0-.361H41.651a3.615,3.615,0,0,0-3.363,2.813,2.941,2.941,0,0,0,2.162,3.36c.229,0,4.387,0,9.538,0l15.5,0,17.413,0c6.11,0,11.226,0,11.455,0a2.939,2.939,0,0,0,2.16-3.36A3.61,3.61,0,0,0,93.157,163.809Z" fill="#a6a8ab"/>
    <path id="Path_44882" data-name="Path 44882" d="M43.187,162.5c5.4-12.873,11.6-33.876,13.576-46.038l.034-.209-10.853,0c-.347-.053-5.437-2.671-5.106-7.118a8.632,8.632,0,0,1,5.924-7.469H58.019l.036-.445-.11-.053A20.667,20.667,0,0,1,46.44,82.641a20.292,20.292,0,1,1,40.582,0,20.668,20.668,0,0,1-11.506,18.522l-.112.054.04.444H86.536c.436,0,5.76,2,6.141,7.468.332,4.424-4.96,7.064-5.342,7.122l-10.672,0,.035.209c2.036,12.522,9.5,34.772,15.423,46.038Z" fill="url(#linear-gradient-4)"/>
    <path id="Path_44883" data-name="Path 44883" d="M66.732,62.306a20.246,20.246,0,0,1,20.11,20.335A20.488,20.488,0,0,1,75.437,101l-.224.108.022.248.014.157.03.328H86.527c.535.044,5.6,2.036,5.969,7.3.318,4.218-4.755,6.839-5.146,6.925-.075,0-1,.006-4.979.006l-5.5,0h-.423l.068.419c2.023,12.441,9.394,34.469,15.3,45.829H43.458c5.385-12.905,11.519-33.734,13.482-45.829l.07-.419h-.425l-5.527,0c-3.1,0-4.351,0-4.816,0-.18,0-.242,0-.247,0-.419-.089-5.293-2.7-4.977-6.931a8.478,8.478,0,0,1,5.744-7.3H58.185l.026-.332.014-.156.02-.246L58.024,101a20.487,20.487,0,0,1-11.4-18.36A20.247,20.247,0,0,1,66.732,62.306m0-.362a20.754,20.754,0,0,0-8.865,39.381l-.015.156H46.762a8.748,8.748,0,0,0-6.1,7.635c-.334,4.472,4.745,7.234,5.278,7.313.12,0,2.234,0,5.121,0h5.527c-2.026,12.478-8.305,33.548-13.67,46.248h49.5c-5.886-11.066-13.514-33.762-15.546-46.248h5.5c2.84,0,4.879,0,4.991,0,.532-.079,5.829-2.841,5.494-7.313-.388-5.59-5.815-7.635-6.32-7.635H75.608l-.014-.156a20.753,20.753,0,0,0-8.862-39.381Z" fill="#a6a8ab"/>
  </g>
</svg>
