<svg xmlns="http://www.w3.org/2000/svg" xmlns:xlink="http://www.w3.org/1999/xlink" width="58.671" height="149.601" viewBox="0 0 58.671 149.601">
  <defs>
    <linearGradient id="linear-gradient" x1="-4.626" y1="6.68" x2="-4.602" y2="6.68" gradientUnits="objectBoundingBox">
      <stop offset="0" stop-color="#cbccce"/>
      <stop offset="0.661" stop-color="#ebecec"/>
      <stop offset="1" stop-color="#fff"/>
    </linearGradient>
    <linearGradient id="linear-gradient-2" x1="-11.367" y1="19.342" x2="-11.311" y2="19.342" xlink:href="#linear-gradient"/>
    <linearGradient id="linear-gradient-3" x1="-3.387" y1="39.73" x2="-3.369" y2="39.73" xlink:href="#linear-gradient"/>
    <linearGradient id="linear-gradient-4" x1="-3.301" y1="9.883" x2="-3.284" y2="9.883" xlink:href="#linear-gradient"/>
    <linearGradient id="linear-gradient-5" x1="-3.918" y1="55.059" x2="-3.897" y2="55.059" xlink:href="#linear-gradient"/>
    <linearGradient id="linear-gradient-6" x1="-4.035" y1="7.086" x2="-4.014" y2="7.086" xlink:href="#linear-gradient"/>
  </defs>
  <g id="Group_41828" data-name="Group 41828" transform="translate(-230.641 -61.944)">
    <path id="Path_44786" data-name="Path 44786" d="M238.859,174.023l.632-1.171c5.6-10.386,10.437-19.36,11.927-42.284h18.191c1.506,23.155,6.678,32.605,12.152,42.614l.459.841Z" fill="url(#linear-gradient)"/>
    <path id="Path_44787" data-name="Path 44787" d="M269.488,130.7c1.517,23.092,6.687,32.542,12.159,42.545l.356.651H239.076l.528-.981c5.6-10.382,10.434-19.35,11.935-42.215h17.949m.242-.259H251.3c-1.544,24-6.857,32.921-12.654,43.713h43.795C276.72,163.675,271.275,154.441,269.73,130.439Z" fill="#a6a8ab"/>
    <path id="Path_44788" data-name="Path 44788" d="M260.828,80.685a9.305,9.305,0,1,1,9.3-9.307A9.317,9.317,0,0,1,260.828,80.685Z" fill="url(#linear-gradient-2)"/>
    <path id="Path_44789" data-name="Path 44789" d="M260.828,62.2a9.176,9.176,0,1,1-9.177,9.175,9.186,9.186,0,0,1,9.177-9.175m0-.259a9.435,9.435,0,1,0,9.434,9.434A9.435,9.435,0,0,0,260.828,61.944Z" fill="#a6a8ab"/>
    <path id="Path_44790" data-name="Path 44790" d="M231.42,211.416a10.941,10.941,0,0,1,.486-3.248,6.709,6.709,0,0,1,1.9-2.153l52.425.025a8.281,8.281,0,0,1,1.768,2.2,14.111,14.111,0,0,1,.538,3.172Z" fill="url(#linear-gradient-3)"/>
    <path id="Path_44791" data-name="Path 44791" d="M286.14,206.169a6.965,6.965,0,0,1,1.739,2.121,13.212,13.212,0,0,1,.519,3H231.553a10.386,10.386,0,0,1,.472-3.067,6.374,6.374,0,0,1,1.793-2.05H286.14m.095-.259h-52.5a6.814,6.814,0,0,0-1.942,2.207,11.654,11.654,0,0,0-.5,3.428h57.388a15.16,15.16,0,0,0-.556-3.349A7.575,7.575,0,0,0,286.235,205.91Z" fill="#a6a8ab"/>
    <path id="Path_44792" data-name="Path 44792" d="M234.125,205a17.56,17.56,0,0,1-3.307-11.756c.29-3.969,2.968-8.019,5.121-11.275.283-.426.556-.839.815-1.239h46.987c1.9,2.8,5.078,8.214,5.4,13.394A15.433,15.433,0,0,1,285.838,205Z" fill="url(#linear-gradient-4)"/>
    <path id="Path_44793" data-name="Path 44793" d="M283.672,180.856c1.893,2.807,5.021,8.16,5.344,13.274a15.3,15.3,0,0,1-3.242,10.738H234.188a17.448,17.448,0,0,1-3.241-11.617c.287-3.935,2.956-7.971,5.1-11.213.268-.4.53-.8.777-1.182h46.848m.138-.258H236.684c-2.281,3.522-5.664,8.092-6,12.634a17.647,17.647,0,0,0,3.373,11.894H285.9a15.628,15.628,0,0,0,3.373-11.012C288.984,189.51,286.441,184.474,283.81,180.6Z" fill="#a6a8ab"/>
    <path id="Path_44794" data-name="Path 44794" d="M236.907,179.686a2.1,2.1,0,0,1-1.233-.863,1.79,1.79,0,0,1-.335-1.542,2.679,2.679,0,0,1,2.506-2.05h45.2a2.679,2.679,0,0,1,2.506,2.047,1.794,1.794,0,0,1-.335,1.546,2.065,2.065,0,0,1-1.235.862c-.138,0-2.922,0-6.652,0C277.333,179.689,237.048,179.688,236.907,179.686Z" fill="url(#linear-gradient-5)"/>
    <path id="Path_44795" data-name="Path 44795" d="M283.049,175.36a2.552,2.552,0,0,1,2.382,1.955,1.661,1.661,0,0,1-.315,1.432,2,2,0,0,1-1.13.809c-.125,0-2.364,0-6.653,0l-17.826,0-16.587,0c-3.864,0-5.886,0-6,0a1.987,1.987,0,0,1-1.138-.811,1.656,1.656,0,0,1-.312-1.435,2.546,2.546,0,0,1,2.379-1.95h45.2m0-.258h-45.2a2.813,2.813,0,0,0-2.63,2.145,2.248,2.248,0,0,0,1.69,2.567c.141,0,2.636,0,6.015,0,5.235,0,12.589,0,16.587,0s12.047,0,17.826,0c3.731,0,6.516,0,6.656,0a2.251,2.251,0,0,0,1.692-2.567A2.815,2.815,0,0,0,283.049,175.1Z" fill="#a6a8ab"/>
    <path id="Path_44796" data-name="Path 44796" d="M248.806,129.621c-2.818,0-5.019,0-5.129,0-.37-.043-3.283-1.7-3.025-4.321a5.242,5.242,0,0,1,3.676-4.5h5.565l.008-.121c.9-14.044-6.214-25.883-11.3-29.461-.741-.521-4.311-3.307-1.731-6.988a4.683,4.683,0,0,1,3.918-2.086,4.3,4.3,0,0,1,1.11.138,7.351,7.351,0,0,1,1.254.592,9.3,9.3,0,0,0,4.3,1.41,11.794,11.794,0,0,0,6.581-2.485c1.862,1.356,4.079,2.722,6.465,2.722,2.321,0,4.478-1.309,6.1-2.448a3.253,3.253,0,0,1,.286-.276l.074,0c.2.148.407.313.621.487a10.875,10.875,0,0,0,5.876,2,9.29,9.29,0,0,0,4.307-1.411,7.477,7.477,0,0,1,1.252-.591,4.323,4.323,0,0,1,1.112-.138,4.686,4.686,0,0,1,3.92,2.086c2.575,3.679-.991,6.466-1.732,6.988-5.065,3.56-12.16,15.354-11.3,29.36l-.024.149.138.073h4.781a5.59,5.59,0,0,1,3.5,4.734c.255,2.6-2.422,4.038-2.865,4.088-.084,0-1.993,0-5.661,0Z" fill="url(#linear-gradient-6)"/>
    <path id="Path_44797" data-name="Path 44797" d="M266.915,81.939l.056.022,0,0c.171.129.351.272.549.434a11,11,0,0,0,5.935,2.017,9.4,9.4,0,0,0,4.369-1.428,7.367,7.367,0,0,1,1.225-.58,4.191,4.191,0,0,1,1.078-.134,4.561,4.561,0,0,1,3.813,2.032c2.505,3.579-.976,6.3-1.7,6.808-5.085,3.576-12.208,15.4-11.36,29.445l-.012.073-.046.3H275.9a5.521,5.521,0,0,1,3.381,4.618c.254,2.605-2.511,3.916-2.729,3.943-.065,0-1.1,0-5.673,0l-11.422,0-10.651,0H243.7c-.381-.058-3.168-1.681-2.924-4.183a5.147,5.147,0,0,1,3.548-4.381h5.687l.015-.243c.9-14.093-6.245-25.979-11.355-29.575-.724-.508-4.208-3.227-1.7-6.808a4.559,4.559,0,0,1,3.812-2.032,4.188,4.188,0,0,1,1.077.134,7.346,7.346,0,0,1,1.226.581,9.39,9.39,0,0,0,4.366,1.427,11.84,11.84,0,0,0,6.58-2.455c1.863,1.349,4.075,2.69,6.466,2.69,2.358,0,4.536-1.319,6.173-2.469l.023-.018.019-.02.2-.2m-.037-.3a2.471,2.471,0,0,0-.352.328c-1.73,1.216-3.812,2.423-6.024,2.423-2.427,0-4.646-1.42-6.465-2.751a11.609,11.609,0,0,1-6.581,2.516c-2.409,0-4.465-1.7-5.523-2a4.423,4.423,0,0,0-1.146-.143,4.8,4.8,0,0,0-4.024,2.142c-2.282,3.257.054,5.967,1.763,7.168,5.326,3.746,12.107,15.834,11.246,29.347h-5.444a5.3,5.3,0,0,0-3.806,4.616c-.266,2.717,2.728,4.415,3.152,4.463.11,0,2.314.005,5.135.005,3.555,0,8.09,0,10.651,0s7.506,0,11.422,0c3.109,0,5.57,0,5.68-.005.423-.048,3.245-1.512,2.978-4.227a5.659,5.659,0,0,0-3.633-4.852h-4.781l.015-.1c-.823-13.47,5.934-25.507,11.25-29.245,1.705-1.2,4.043-3.911,1.763-7.168a4.8,4.8,0,0,0-4.025-2.142,4.428,4.428,0,0,0-1.148.143c-1.057.295-3.113,2-5.524,2a10.919,10.919,0,0,1-5.794-1.976c-.235-.194-.462-.374-.682-.533l-.047.032Z" fill="#a6a8ab"/>
    <path id="Path_44798" data-name="Path 44798" d="M238.859,174.023l.632-1.171c5.6-10.386,10.437-19.36,11.927-42.284h18.191c1.506,23.155,6.678,32.605,12.152,42.614l.459.841Z" fill="url(#linear-gradient)"/>
    <path id="Path_44799" data-name="Path 44799" d="M269.488,130.7c1.517,23.092,6.687,32.542,12.159,42.545l.356.651H239.076l.528-.981c5.6-10.382,10.434-19.35,11.935-42.215h17.949m.242-.259H251.3c-1.544,24-6.857,32.921-12.654,43.713h43.795C276.72,163.675,271.275,154.441,269.73,130.439Z" fill="#a6a8ab"/>
    <path id="Path_44800" data-name="Path 44800" d="M231.42,211.416a10.941,10.941,0,0,1,.486-3.248,6.709,6.709,0,0,1,1.9-2.153l52.425.025a8.281,8.281,0,0,1,1.768,2.2,14.111,14.111,0,0,1,.538,3.172Z" fill="url(#linear-gradient-3)"/>
    <path id="Path_44801" data-name="Path 44801" d="M286.14,206.169a6.965,6.965,0,0,1,1.739,2.121,13.212,13.212,0,0,1,.519,3H231.553a10.386,10.386,0,0,1,.472-3.067,6.374,6.374,0,0,1,1.793-2.05H286.14m.095-.259h-52.5a6.814,6.814,0,0,0-1.942,2.207,11.654,11.654,0,0,0-.5,3.428h57.388a15.16,15.16,0,0,0-.556-3.349A7.575,7.575,0,0,0,286.235,205.91Z" fill="#a6a8ab"/>
    <path id="Path_44802" data-name="Path 44802" d="M234.125,205a17.56,17.56,0,0,1-3.307-11.756c.29-3.969,2.968-8.019,5.121-11.275.283-.426.556-.839.815-1.239h46.987c1.9,2.8,5.078,8.214,5.4,13.394A15.433,15.433,0,0,1,285.838,205Z" fill="url(#linear-gradient-4)"/>
    <path id="Path_44803" data-name="Path 44803" d="M283.672,180.856c1.893,2.807,5.021,8.16,5.344,13.274a15.3,15.3,0,0,1-3.242,10.738H234.188a17.448,17.448,0,0,1-3.241-11.617c.287-3.935,2.956-7.971,5.1-11.213.268-.4.53-.8.777-1.182h46.848m.138-.258H236.684c-2.281,3.522-5.664,8.092-6,12.634a17.647,17.647,0,0,0,3.373,11.894H285.9a15.628,15.628,0,0,0,3.373-11.012C288.984,189.51,286.441,184.474,283.81,180.6Z" fill="#a6a8ab"/>
    <path id="Path_44804" data-name="Path 44804" d="M236.907,179.686a2.1,2.1,0,0,1-1.233-.863,1.79,1.79,0,0,1-.335-1.542,2.679,2.679,0,0,1,2.506-2.05h45.2a2.679,2.679,0,0,1,2.506,2.047,1.794,1.794,0,0,1-.335,1.546,2.065,2.065,0,0,1-1.235.862c-.138,0-2.922,0-6.652,0C277.333,179.689,237.048,179.688,236.907,179.686Z" fill="url(#linear-gradient-5)"/>
    <path id="Path_44805" data-name="Path 44805" d="M283.049,175.36a2.552,2.552,0,0,1,2.382,1.955,1.661,1.661,0,0,1-.315,1.432,2,2,0,0,1-1.13.809c-.125,0-2.364,0-6.653,0l-17.826,0-16.587,0c-3.864,0-5.886,0-6,0a1.987,1.987,0,0,1-1.138-.811,1.656,1.656,0,0,1-.312-1.435,2.546,2.546,0,0,1,2.379-1.95h45.2m0-.258h-45.2a2.813,2.813,0,0,0-2.63,2.145,2.248,2.248,0,0,0,1.69,2.567c.141,0,2.636,0,6.015,0,5.235,0,12.589,0,16.587,0s12.047,0,17.826,0c3.731,0,6.516,0,6.656,0a2.251,2.251,0,0,0,1.692-2.567A2.815,2.815,0,0,0,283.049,175.1Z" fill="#a6a8ab"/>
    <path id="Path_44806" data-name="Path 44806" d="M248.806,129.621c-2.818,0-5.019,0-5.129,0-.37-.043-3.283-1.7-3.025-4.321a5.242,5.242,0,0,1,3.676-4.5h5.565l.008-.121c.9-14.044-6.214-25.883-11.3-29.461-.741-.521-4.311-3.307-1.731-6.988a4.683,4.683,0,0,1,3.918-2.086,4.3,4.3,0,0,1,1.11.138,7.351,7.351,0,0,1,1.254.592,9.3,9.3,0,0,0,4.3,1.41,11.794,11.794,0,0,0,6.581-2.485c1.862,1.356,4.079,2.722,6.465,2.722,2.321,0,4.478-1.309,6.1-2.448a3.253,3.253,0,0,1,.286-.276l.074,0c.2.148.407.313.621.487a10.875,10.875,0,0,0,5.876,2,9.29,9.29,0,0,0,4.307-1.411,7.477,7.477,0,0,1,1.252-.591,4.323,4.323,0,0,1,1.112-.138,4.686,4.686,0,0,1,3.92,2.086c2.575,3.679-.991,6.466-1.732,6.988-5.065,3.56-12.16,15.354-11.3,29.36l-.024.149.138.073h4.781a5.59,5.59,0,0,1,3.5,4.734c.255,2.6-2.422,4.038-2.865,4.088-.084,0-1.993,0-5.661,0Z" fill="url(#linear-gradient-6)"/>
    <path id="Path_44807" data-name="Path 44807" d="M266.915,81.939l.056.022,0,0c.171.129.351.272.549.434a11,11,0,0,0,5.935,2.017,9.4,9.4,0,0,0,4.369-1.428,7.367,7.367,0,0,1,1.225-.58,4.191,4.191,0,0,1,1.078-.134,4.561,4.561,0,0,1,3.813,2.032c2.505,3.579-.976,6.3-1.7,6.808-5.085,3.576-12.208,15.4-11.36,29.445l-.012.073-.046.3H275.9a5.521,5.521,0,0,1,3.381,4.618c.254,2.605-2.511,3.916-2.729,3.943-.065,0-1.1,0-5.673,0l-11.422,0-10.651,0H243.7c-.381-.058-3.168-1.681-2.924-4.183a5.147,5.147,0,0,1,3.548-4.381h5.687l.015-.243c.9-14.093-6.245-25.979-11.355-29.575-.724-.508-4.208-3.227-1.7-6.808a4.559,4.559,0,0,1,3.812-2.032,4.188,4.188,0,0,1,1.077.134,7.346,7.346,0,0,1,1.226.581,9.39,9.39,0,0,0,4.366,1.427,11.84,11.84,0,0,0,6.58-2.455c1.863,1.349,4.075,2.69,6.466,2.69,2.358,0,4.536-1.319,6.173-2.469l.023-.018.019-.02.2-.2m-.037-.3a2.471,2.471,0,0,0-.352.328c-1.73,1.216-3.812,2.423-6.024,2.423-2.427,0-4.646-1.42-6.465-2.751a11.609,11.609,0,0,1-6.581,2.516c-2.409,0-4.465-1.7-5.523-2a4.423,4.423,0,0,0-1.146-.143,4.8,4.8,0,0,0-4.024,2.142c-2.282,3.257.054,5.967,1.763,7.168,5.326,3.746,12.107,15.834,11.246,29.347h-5.444a5.3,5.3,0,0,0-3.806,4.616c-.266,2.717,2.728,4.415,3.152,4.463.11,0,2.314.005,5.135.005,3.555,0,8.09,0,10.651,0s7.506,0,11.422,0c3.109,0,5.57,0,5.68-.005.423-.048,3.245-1.512,2.978-4.227a5.659,5.659,0,0,0-3.633-4.852h-4.781l.015-.1c-.823-13.47,5.934-25.507,11.25-29.245,1.705-1.2,4.043-3.911,1.763-7.168a4.8,4.8,0,0,0-4.025-2.142,4.428,4.428,0,0,0-1.148.143c-1.057.295-3.113,2-5.524,2a10.919,10.919,0,0,1-5.794-1.976c-.235-.194-.462-.374-.682-.533l-.047.032Z" fill="#a6a8ab"/>
  </g>
</svg>
