<?xml version="1.0" encoding="UTF-8" standalone="no"?>
<svg
   width="52.542"
   height="149.601"
   viewBox="0 0 52.542 149.601"
   version="1.1"
   id="svg239"
   sodipodi:docname="white_king.svg"
   inkscape:version="1.2.2 (b0a8486541, 2022-12-01)"
   xmlns:inkscape="http://www.inkscape.org/namespaces/inkscape"
   xmlns:sodipodi="http://sodipodi.sourceforge.net/DTD/sodipodi-0.dtd"
   xmlns:xlink="http://www.w3.org/1999/xlink"
   xmlns="http://www.w3.org/2000/svg"
   xmlns:svg="http://www.w3.org/2000/svg">
  <sodipodi:namedview
     id="namedview241"
     pagecolor="#ffffff"
     bordercolor="#666666"
     borderopacity="1.0"
     inkscape:showpageshadow="2"
     inkscape:pageopacity="0.0"
     inkscape:pagecheckerboard="0"
     inkscape:deskcolor="#d1d1d1"
     showgrid="false"
     inkscape:zoom="7.4491501"
     inkscape:cx="-26.781579"
     inkscape:cy="51.683749"
     inkscape:window-width="1920"
     inkscape:window-height="986"
     inkscape:window-x="-11"
     inkscape:window-y="-11"
     inkscape:window-maximized="1"
     inkscape:current-layer="Group_41831" />
  <defs
     id="defs214">
    <linearGradient
       id="linear-gradient"
       x1="-2.009"
       y1="41.935"
       x2="-1.991"
       y2="41.935"
       gradientUnits="objectBoundingBox">
      <stop
         offset="0"
         stop-color="#cbccce"
         id="stop202" />
      <stop
         offset="0.661"
         stop-color="#ebecec"
         id="stop204" />
      <stop
         offset="1"
         stop-color="#fff"
         id="stop206" />
    </linearGradient>
    <linearGradient
       id="linear-gradient-2"
       x1="-1.952"
       y1="10.381"
       x2="-1.934"
       y2="10.381"
       xlink:href="#linear-gradient" />
    <linearGradient
       id="linear-gradient-3"
       x1="-2.368"
       y1="57.728"
       x2="-2.347"
       y2="57.728"
       xlink:href="#linear-gradient" />
    <linearGradient
       id="linear-gradient-4"
       x1="-2.798"
       y1="6.994"
       x2="-2.773"
       y2="6.994"
       xlink:href="#linear-gradient" />
    <linearGradient
       id="linear-gradient-5"
       x1="-6.599"
       y1="19.583"
       x2="-6.546"
       y2="19.583"
       xlink:href="#linear-gradient" />
    <linearGradient
       id="linear-gradient-6"
       x1="-2.48"
       y1="6.419"
       x2="-2.458"
       y2="6.419"
       xlink:href="#linear-gradient" />
  </defs>
  <g
     id="Group_41831"
     data-name="Group 41831"
     transform="translate(-139.627 -61.944)">
    <g
       id="g3043">
      <path
         id="Path_44867"
         data-name="Path 44867"
         d="M173.272,81.855a1.988,1.988,0,0,1,1.962,2.009V86.03h4.6a7.541,7.541,0,0,1,7.448,7.614,10.435,10.435,0,0,1-1.726,5.193c-1.265,2.046-9.358,13.956-9.44,14.076l-.045.067,0,.079.655,13.724.01.228h2.6A4.745,4.745,0,0,1,182.189,131c.213,2.221-2.116,3.379-2.3,3.406-.117,0-3.62,0-4.771,0H152c-.333-.057-2.676-1.44-2.467-3.613a4.373,4.373,0,0,1,2.994-3.787h2.544l.013-.226.757-13.391.005-.08-.045-.067c-.082-.124-8.28-12.364-9.543-14.41a10.4,10.4,0,0,1-1.727-5.193,7.54,7.54,0,0,1,7.447-7.614h4.6V83.864a1.987,1.987,0,0,1,1.961-2.009h14.734m0-.239H158.538a2.225,2.225,0,0,0-2.2,2.248v1.927h-4.363a7.771,7.771,0,0,0-7.687,7.852,10.62,10.62,0,0,0,1.763,5.32c1.281,2.073,9.549,14.416,9.549,14.416l-.757,13.391h-2.319a4.564,4.564,0,0,0-3.232,4c-.227,2.357,2.317,3.831,2.677,3.873.092,0,1.942,0,4.317,0h18.836c2.618,0,4.683,0,4.776,0a3.806,3.806,0,0,0,2.528-3.669,4.883,4.883,0,0,0-3.083-4.209h-2.375l-.653-13.723s8.164-12.011,9.445-14.084a10.628,10.628,0,0,0,1.762-5.32,7.771,7.771,0,0,0-7.687-7.852h-4.361V83.864A2.226,2.226,0,0,0,173.272,81.616Z"
         fill="#a6a8ab" />
      <circle
         style="opacity:1;fill:#ffffff;fill-opacity:1;stroke:#a6a8ab;stroke-width:0.15;stroke-linecap:round;stroke-dasharray:none;stroke-opacity:1"
         id="path639"
         cx="166.24077"
         cy="71.643097"
         r="8.7258272" />
    </g>
    <path
       id="Path_44846"
       data-name="Path 44846"
       d="M140.347,211.426a10.552,10.552,0,0,1,.448-3.072,6.318,6.318,0,0,1,1.761-2.038l46.765.025a7.874,7.874,0,0,1,1.634,2.082,13.559,13.559,0,0,1,.5,3Z"
       fill="url(#linear-gradient)" />
    <path
       id="Path_44847"
       data-name="Path 44847"
       d="M189.233,206.46a6.6,6.6,0,0,1,1.611,2.006,12.854,12.854,0,0,1,.481,2.84H140.469a10.083,10.083,0,0,1,.437-2.907,5.988,5.988,0,0,1,1.66-1.939h46.667m.089-.239H142.484a6.393,6.393,0,0,0-1.8,2.087,11.279,11.279,0,0,0-.46,3.237h51.357a14.553,14.553,0,0,0-.516-3.165A7.1,7.1,0,0,0,189.322,206.221Z"
       fill="#a6a8ab" />
    <path
       id="Path_44848"
       data-name="Path 44848"
       d="M142.85,205.36a16.86,16.86,0,0,1-3.06-11.112c.268-3.754,2.746-7.583,4.738-10.659q.392-.6.754-1.17h41.732c1.755,2.648,4.7,7.764,5,12.66a14.824,14.824,0,0,1-3.06,10.281Z"
       fill="url(#linear-gradient-2)" />
    <path
       id="Path_44849"
       data-name="Path 44849"
       d="M186.95,182.538c1.752,2.653,4.648,7.713,4.946,12.549a14.7,14.7,0,0,1-3,10.153H142.91a16.749,16.749,0,0,1-3-10.984c.265-3.723,2.735-7.536,4.719-10.6.247-.383.489-.755.719-1.116h41.6m.128-.238H145.216c-2.11,3.328-5.239,7.646-5.544,11.939a16.933,16.933,0,0,0,3.118,11.24h46.226a15,15,0,0,0,3.119-10.408C191.867,190.721,189.513,185.961,187.078,182.3Z"
       fill="#a6a8ab" />
    <path
       id="Path_44850"
       data-name="Path 44850"
       d="M145.422,181.438a1.909,1.909,0,0,1-1.121-.79,1.73,1.73,0,0,1-.329-1.485,2.489,2.489,0,0,1,2.32-1.94h40.082a2.484,2.484,0,0,1,2.319,1.938,1.721,1.721,0,0,1-.326,1.485,1.9,1.9,0,0,1-1.127.792c-.138,0-2.877,0-6.441,0Z"
       fill="url(#linear-gradient-3)" />
    <path
       id="Path_44851"
       data-name="Path 44851"
       d="M186.374,177.343a2.366,2.366,0,0,1,2.2,1.85,1.607,1.607,0,0,1-.307,1.382,1.8,1.8,0,0,1-1.029.743c-.122,0-2.234,0-6.457,0h-28.9c-4.223,0-6.335,0-6.45,0a1.789,1.789,0,0,1-1.034-.742,1.611,1.611,0,0,1-.308-1.387,2.365,2.365,0,0,1,2.2-1.846h40.082m0-.239H146.292a2.613,2.613,0,0,0-2.435,2.028,2.123,2.123,0,0,0,1.565,2.426c.141,0,2.888,0,6.459,0h28.9c3.572,0,6.317,0,6.46,0a2.122,2.122,0,0,0,1.564-2.426A2.611,2.611,0,0,0,186.374,177.1Z"
       fill="#a6a8ab" />
    <path
       id="Path_44852"
       data-name="Path 44852"
       d="M146.811,176.321c.624-1.42,1.233-2.764,1.824-4.07,4.31-9.522,7.716-17.046,8.959-36.706h16.617c1.181,18.618,4.8,26.306,8.982,35.2.834,1.773,1.7,3.605,2.562,5.574Z"
       fill="url(#linear-gradient-4)" />
    <path
       id="Path_44853"
       data-name="Path 44853"
       d="M174.1,135.664c1.189,18.56,4.8,26.244,8.985,35.134.811,1.722,1.647,3.5,2.488,5.4H146.995c.6-1.358,1.181-2.647,1.749-3.9,4.307-9.514,7.712-17.036,8.962-36.636H174.1m.225-.239H157.481c-1.41,22.521-5.63,29.088-10.853,41.016h39.31C180.715,164.513,175.736,157.946,174.324,135.425Z"
       fill="#a6a8ab" />
    <path
       id="Path_44856"
       data-name="Path 44856"
       d="M151.971,134.527c-.312-.035-2.779-1.468-2.559-3.74a4.5,4.5,0,0,1,3.112-3.9h2.431l.764-13.5c-.1-.2-8.3-12.439-9.565-14.487a10.517,10.517,0,0,1-1.746-5.256,7.66,7.66,0,0,1,7.567-7.733h4.482V83.864a2.107,2.107,0,0,1,2.081-2.128h14.734a2.107,2.107,0,0,1,2.081,2.128v2.047h4.482a7.66,7.66,0,0,1,7.567,7.733,10.543,10.543,0,0,1-1.744,5.256c-1.265,2.047-9.36,13.96-9.443,14.08l.639,13.912h2.489a4.815,4.815,0,0,1,2.965,4.1c.228,2.363-2.211,3.515-2.422,3.539h-4.764S152.064,134.53,151.971,134.527Z"
       fill="url(#linear-gradient-6)" />
    <path
       id="Path_44857"
       data-name="Path 44857"
       d="M173.272,81.855a1.988,1.988,0,0,1,1.962,2.009V86.03h4.6a7.541,7.541,0,0,1,7.448,7.614,10.435,10.435,0,0,1-1.726,5.193c-1.265,2.046-9.358,13.956-9.44,14.076l-.045.067,0,.079.655,13.724.01.228h2.6A4.745,4.745,0,0,1,182.189,131c.213,2.221-2.116,3.379-2.3,3.406-.117,0-3.62,0-4.771,0H152c-.333-.057-2.676-1.44-2.467-3.613a4.373,4.373,0,0,1,2.994-3.787h2.544l.013-.226.757-13.391.005-.08-.045-.067c-.082-.124-8.28-12.364-9.543-14.41a10.4,10.4,0,0,1-1.727-5.193,7.54,7.54,0,0,1,7.447-7.614h4.6V83.864a1.987,1.987,0,0,1,1.961-2.009h14.734m0-.239H158.538a2.225,2.225,0,0,0-2.2,2.248v1.927h-4.363a7.771,7.771,0,0,0-7.687,7.852,10.62,10.62,0,0,0,1.763,5.32c1.281,2.073,9.549,14.416,9.549,14.416l-.757,13.391h-2.319a4.564,4.564,0,0,0-3.232,4c-.227,2.357,2.317,3.831,2.677,3.873.092,0,1.942,0,4.317,0h18.836c2.618,0,4.683,0,4.776,0a3.806,3.806,0,0,0,2.528-3.669,4.883,4.883,0,0,0-3.083-4.209h-2.375l-.653-13.723s8.164-12.011,9.445-14.084a10.628,10.628,0,0,0,1.762-5.32,7.771,7.771,0,0,0-7.687-7.852h-4.361V83.864A2.226,2.226,0,0,0,173.272,81.616Z"
       fill="#a6a8ab" />
    <path
       id="Path_44858"
       data-name="Path 44858"
       d="M140.347,211.426a10.552,10.552,0,0,1,.448-3.072,6.318,6.318,0,0,1,1.761-2.038l46.765.025a7.874,7.874,0,0,1,1.634,2.082,13.559,13.559,0,0,1,.5,3Z"
       fill="url(#linear-gradient)" />
    <path
       id="Path_44859"
       data-name="Path 44859"
       d="M189.233,206.46a6.6,6.6,0,0,1,1.611,2.006,12.854,12.854,0,0,1,.481,2.84H140.469a10.083,10.083,0,0,1,.437-2.907,5.988,5.988,0,0,1,1.66-1.939h46.667m.089-.239H142.484a6.393,6.393,0,0,0-1.8,2.087,11.279,11.279,0,0,0-.46,3.237h51.357a14.553,14.553,0,0,0-.516-3.165A7.1,7.1,0,0,0,189.322,206.221Z"
       fill="#a6a8ab" />
    <path
       id="Path_44860"
       data-name="Path 44860"
       d="M142.85,205.36a16.86,16.86,0,0,1-3.06-11.112c.268-3.754,2.746-7.583,4.738-10.659q.392-.6.754-1.17h41.732c1.755,2.648,4.7,7.764,5,12.66a14.824,14.824,0,0,1-3.06,10.281Z"
       fill="url(#linear-gradient-2)" />
    <path
       id="Path_44861"
       data-name="Path 44861"
       d="M186.95,182.538c1.752,2.653,4.648,7.713,4.946,12.549a14.7,14.7,0,0,1-3,10.153H142.91a16.749,16.749,0,0,1-3-10.984c.265-3.723,2.735-7.536,4.719-10.6.247-.383.489-.755.719-1.116h41.6m.128-.238H145.216c-2.11,3.328-5.239,7.646-5.544,11.939a16.933,16.933,0,0,0,3.118,11.24h46.226a15,15,0,0,0,3.119-10.408C191.867,190.721,189.513,185.961,187.078,182.3Z"
       fill="#a6a8ab" />
    <path
       id="Path_44862"
       data-name="Path 44862"
       d="M145.422,181.438a1.909,1.909,0,0,1-1.121-.79,1.73,1.73,0,0,1-.329-1.485,2.489,2.489,0,0,1,2.32-1.94h40.082a2.484,2.484,0,0,1,2.319,1.938,1.721,1.721,0,0,1-.326,1.485,1.9,1.9,0,0,1-1.127.792c-.138,0-2.877,0-6.441,0Z"
       fill="url(#linear-gradient-3)" />
    <path
       id="Path_44863"
       data-name="Path 44863"
       d="M186.374,177.343a2.366,2.366,0,0,1,2.2,1.85,1.607,1.607,0,0,1-.307,1.382,1.8,1.8,0,0,1-1.029.743c-.122,0-2.234,0-6.457,0h-28.9c-4.223,0-6.335,0-6.45,0a1.789,1.789,0,0,1-1.034-.742,1.611,1.611,0,0,1-.308-1.387,2.365,2.365,0,0,1,2.2-1.846h40.082m0-.239H146.292a2.613,2.613,0,0,0-2.435,2.028,2.123,2.123,0,0,0,1.565,2.426c.141,0,2.888,0,6.459,0h28.9c3.572,0,6.317,0,6.46,0a2.122,2.122,0,0,0,1.564-2.426A2.611,2.611,0,0,0,186.374,177.1Z"
       fill="#a6a8ab" />
    <path
       id="Path_44864"
       data-name="Path 44864"
       d="M146.811,176.321c.624-1.42,1.233-2.764,1.824-4.07,4.31-9.522,7.716-17.046,8.959-36.706h16.617c1.181,18.618,4.8,26.306,8.982,35.2.834,1.773,1.7,3.605,2.562,5.574Z"
       fill="url(#linear-gradient-4)" />
    <path
       id="Path_44865"
       data-name="Path 44865"
       d="M174.1,135.664c1.189,18.56,4.8,26.244,8.985,35.134.811,1.722,1.647,3.5,2.488,5.4H146.995c.6-1.358,1.181-2.647,1.749-3.9,4.307-9.514,7.712-17.036,8.962-36.636H174.1m.225-.239H157.481c-1.41,22.521-5.63,29.088-10.853,41.016h39.31C180.715,164.513,175.736,157.946,174.324,135.425Z"
       fill="#a6a8ab" />
    <path
       id="Path_44866"
       data-name="Path 44866"
       d="M151.971,134.527c-.312-.035-2.779-1.468-2.559-3.74a4.5,4.5,0,0,1,3.112-3.9h2.431l.764-13.5c-.1-.2-8.3-12.439-9.565-14.487a10.517,10.517,0,0,1-1.746-5.256,7.66,7.66,0,0,1,7.567-7.733h4.482V83.864a2.107,2.107,0,0,1,2.081-2.128h14.734a2.107,2.107,0,0,1,2.081,2.128v2.047h4.482a7.66,7.66,0,0,1,7.567,7.733,10.543,10.543,0,0,1-1.744,5.256c-1.265,2.047-9.36,13.96-9.443,14.08l.639,13.912h2.489a4.815,4.815,0,0,1,2.965,4.1c.228,2.363-2.211,3.515-2.422,3.539h-4.764S152.064,134.53,151.971,134.527Z"
       fill="url(#linear-gradient-6)" />
  </g>
</svg>
