<svg xmlns="http://www.w3.org/2000/svg" xmlns:xlink="http://www.w3.org/1999/xlink" width="79.988" height="149.601" viewBox="0 0 79.988 149.601">
  <defs>
    <linearGradient id="linear-gradient" x1="-5.463" y1="13.007" x2="-5.445" y2="13.007" gradientUnits="objectBoundingBox">
      <stop offset="0" stop-color="#cbccce"/>
      <stop offset="0.661" stop-color="#ebecec"/>
      <stop offset="1" stop-color="#fff"/>
    </linearGradient>
    <linearGradient id="linear-gradient-2" x1="-7.591" y1="6.132" x2="-7.566" y2="6.132" xlink:href="#linear-gradient"/>
    <linearGradient id="linear-gradient-3" x1="-4.909" y1="25.59" x2="-4.892" y2="25.59" xlink:href="#linear-gradient"/>
    <linearGradient id="linear-gradient-4" x1="-4.81" y1="6.773" x2="-4.793" y2="6.773" xlink:href="#linear-gradient"/>
    <linearGradient id="linear-gradient-5" x1="-5.945" y1="37.827" x2="-5.925" y2="37.827" xlink:href="#linear-gradient"/>
    <linearGradient id="linear-gradient-6" x1="-7.286" y1="40.193" x2="-7.262" y2="40.193" xlink:href="#linear-gradient"/>
  </defs>
  <g id="Group_41830" data-name="Group 41830" transform="translate(-421.842 -61.944)">
    <path id="Path_44824" data-name="Path 44824" d="M439.254,89.718a30.379,30.379,0,0,1-8.92-11.724,50.193,50.193,0,0,1-4.041-15.885h17.392l-1.263,13.1h12.8l-1.259-13.1H469.5l-1.264,13.1h12.807l-1.264-13.1h17.385c-.133,1.339-1.072,9.831-4.031,15.88a44.166,44.166,0,0,1-8.983,11.729Z" fill="url(#linear-gradient)"/>
    <path id="Path_44825" data-name="Path 44825" d="M496.978,62.275c-.187,1.788-1.16,9.844-4,15.642a43.889,43.889,0,0,1-8.9,11.635H439.359a29.834,29.834,0,0,1-8.873-11.625,50.187,50.187,0,0,1-4.014-15.652H443.5l-1.229,12.742-.035.363h13.17l-.035-.363-1.225-12.742h15.168l-1.228,12.742-.035.363h13.17l-.036-.363-1.228-12.742h17.019m.366-.331h-17.75l1.261,13.1H468.416l1.264-13.1h-15.9l1.262,13.1H442.6l1.264-13.1h-17.75a49.641,49.641,0,0,0,4.067,16.117c3.693,8.2,9.07,11.823,9.07,11.823h44.957a44.044,44.044,0,0,0,9.068-11.823C496.535,71.408,497.344,61.944,497.344,61.944Z" fill="#a6a8ab"/>
    <path id="Path_44826" data-name="Path 44826" d="M435.763,153.1l5-52.272h42.156l4.992,52.272Z" fill="url(#linear-gradient-2)"/>
    <path id="Path_44827" data-name="Path 44827" d="M482.762,100.993l4.963,51.942H435.944l4.964-51.942h41.854m.3-.331H440.605l-5.023,52.6H488.09Z" fill="#a6a8ab"/>
    <path id="Path_44828" data-name="Path 44828" d="M422.685,211.379a42.261,42.261,0,0,1,1.252-5,10.5,10.5,0,0,1,2.873-3.509l70.057.036c-.045.025,2.336,2.455,2.877,4.071.471,1.408.971,3.712,1.117,4.4Z" fill="url(#linear-gradient-3)"/>
    <path id="Path_44829" data-name="Path 44829" d="M496.728,203.074a14.8,14.8,0,0,1,2.86,3.956c.428,1.286.885,3.327,1.066,4.183H422.887a39.978,39.978,0,0,1,1.207-4.774,9.958,9.958,0,0,1,2.732-3.365h69.9m.139-.331h-70.16a10.591,10.591,0,0,0-2.925,3.581,44.25,44.25,0,0,0-1.3,5.221h78.578s-.6-2.93-1.164-4.619S496.867,202.743,496.867,202.743Z" fill="#a6a8ab"/>
    <path id="Path_44830" data-name="Path 44830" d="M427.238,201.353c-3.8-5.73-5.55-11.619-5.181-17.5.3-4.965,4.058-10.369,7.369-15.137,1.336-1.924,2.6-3.743,3.5-5.347h59.31c.67,1.149,1.412,2.344,2.174,3.576,3.24,5.227,6.912,11.149,7.223,16.907.312,5.856-1.467,11.747-5.291,17.506Z" fill="url(#linear-gradient-4)"/>
    <path id="Path_44831" data-name="Path 44831" d="M492.139,163.53c.658,1.124,1.371,2.279,2.128,3.5,3.229,5.21,6.889,11.113,7.2,16.827.312,5.8-1.442,11.627-5.213,17.332H427.33c-3.756-5.674-5.474-11.5-5.109-17.329.3-4.918,4.043-10.3,7.341-15.051,1.315-1.894,2.559-3.687,3.456-5.276h59.121m.189-.331h-59.5c-3.046,5.5-10.5,13.544-10.933,20.638s2.169,13.053,5.259,17.681h69.276c3.09-4.628,5.742-10.693,5.369-17.681C501.406,176.645,495.846,169.252,492.328,163.2Z" fill="#a6a8ab"/>
    <path id="Path_44832" data-name="Path 44832" d="M431.871,161.809a3.394,3.394,0,0,1-1.848-1.325,2.9,2.9,0,0,1-.611-2.406,4.12,4.12,0,0,1,3.667-3.3H491.07a4.135,4.135,0,0,1,3.83,3.217,2.874,2.874,0,0,1-.623,2.37,3.779,3.779,0,0,1-2.01,1.445c-.208,0-5.208,0-11.343,0C480.924,161.813,432.084,161.811,431.871,161.809Z" fill="url(#linear-gradient-5)"/>
    <path id="Path_44833" data-name="Path 44833" d="M491.07,154.943a3.964,3.964,0,0,1,3.67,3.09,2.721,2.721,0,0,1-.6,2.231,3.737,3.737,0,0,1-1.875,1.379c-.181,0-4.105,0-11.345,0H442.135c-8.248,0-10.134,0-10.252,0a3.259,3.259,0,0,1-1.727-1.259,2.74,2.74,0,0,1-.581-2.277,3.944,3.944,0,0,1,3.5-3.165H491.07m0-.332H433.079a4.268,4.268,0,0,0-3.83,3.431c-.491,2.2,1.844,3.9,2.618,3.932.215,0,4.694.005,10.268.005,6.39,0,14.222,0,18.73,0s13.027,0,20.059,0c6.135,0,11.138,0,11.351-.005.776-.036,3.28-1.809,2.789-4.013A4.311,4.311,0,0,0,491.07,154.611Z" fill="#a6a8ab"/>
    <path id="Path_44834" data-name="Path 44834" d="M438.928,99.55a7.1,7.1,0,0,1-3.4-2.292,2.644,2.644,0,0,1-.652-2.154,4.293,4.293,0,0,1,3.668-3.768H485.18a4.268,4.268,0,0,1,3.832,3.672,2.582,2.582,0,0,1-.625,2.1,7.058,7.058,0,0,1-3.426,2.274c-.17,0-23.674,0-23.674,0-6.113,0-14.754.093-19.4.14-1.588.016-2.663.027-2.918.027Z" fill="url(#linear-gradient-6)"/>
    <path id="Path_44835" data-name="Path 44835" d="M485.18,91.5a4.1,4.1,0,0,1,3.67,3.542,2.429,2.429,0,0,1-.592,1.966,7.046,7.046,0,0,1-3.293,2.208c-.176,0-2.487,0-5.744,0l-14.662,0h-3.272c-6.115,0-14.756.093-19.4.14-1.592.017-2.663.028-2.95.028a7.039,7.039,0,0,1-3.281-2.23,2.491,2.491,0,0,1-.619-2.024,4.117,4.117,0,0,1,3.5-3.63H485.18m0-.331H438.545a4.444,4.444,0,0,0-3.83,3.9c-.49,2.507,3.431,4.6,4.207,4.644h.051c.994,0,14.056-.166,22.314-.168,5.18,0,12.754,0,17.934,0,3.261,0,5.572,0,5.75,0,.773-.045,4.695-2.063,4.2-4.569A4.444,4.444,0,0,0,485.18,91.17Z" fill="#a6a8ab"/>
    <path id="Path_44836" data-name="Path 44836" d="M435.763,153.1l5-52.272h42.156l4.992,52.272Z" fill="url(#linear-gradient-2)"/>
    <path id="Path_44837" data-name="Path 44837" d="M482.762,100.993l4.963,51.942H435.944l4.964-51.942h41.854m.3-.331H440.605l-5.023,52.6H488.09Z" fill="#a6a8ab"/>
    <path id="Path_44838" data-name="Path 44838" d="M422.685,211.379a42.261,42.261,0,0,1,1.252-5,10.5,10.5,0,0,1,2.873-3.509l70.057.036c-.045.025,2.336,2.455,2.877,4.071.471,1.408.971,3.712,1.117,4.4Z" fill="url(#linear-gradient-3)"/>
    <path id="Path_44839" data-name="Path 44839" d="M496.728,203.074a14.8,14.8,0,0,1,2.86,3.956c.428,1.286.885,3.327,1.066,4.183H422.887a39.978,39.978,0,0,1,1.207-4.774,9.958,9.958,0,0,1,2.732-3.365h69.9m.139-.331h-70.16a10.591,10.591,0,0,0-2.925,3.581,44.25,44.25,0,0,0-1.3,5.221h78.578s-.6-2.93-1.164-4.619S496.867,202.743,496.867,202.743Z" fill="#a6a8ab"/>
    <path id="Path_44840" data-name="Path 44840" d="M427.238,201.353c-3.8-5.73-5.55-11.619-5.181-17.5.3-4.965,4.058-10.369,7.369-15.137,1.336-1.924,2.6-3.743,3.5-5.347h59.31c.67,1.149,1.412,2.344,2.174,3.576,3.24,5.227,6.912,11.149,7.223,16.907.312,5.856-1.467,11.747-5.291,17.506Z" fill="url(#linear-gradient-4)"/>
    <path id="Path_44841" data-name="Path 44841" d="M492.139,163.53c.658,1.124,1.371,2.279,2.128,3.5,3.229,5.21,6.889,11.113,7.2,16.827.312,5.8-1.442,11.627-5.213,17.332H427.33c-3.756-5.674-5.474-11.5-5.109-17.329.3-4.918,4.043-10.3,7.341-15.051,1.315-1.894,2.559-3.687,3.456-5.276h59.121m.189-.331h-59.5c-3.046,5.5-10.5,13.544-10.933,20.638s2.169,13.053,5.259,17.681h69.276c3.09-4.628,5.742-10.693,5.369-17.681C501.406,176.645,495.846,169.252,492.328,163.2Z" fill="#a6a8ab"/>
    <path id="Path_44842" data-name="Path 44842" d="M431.871,161.809a3.394,3.394,0,0,1-1.848-1.325,2.9,2.9,0,0,1-.611-2.406,4.12,4.12,0,0,1,3.667-3.3H491.07a4.135,4.135,0,0,1,3.83,3.217,2.874,2.874,0,0,1-.623,2.37,3.779,3.779,0,0,1-2.01,1.445c-.208,0-5.208,0-11.343,0C480.924,161.813,432.084,161.811,431.871,161.809Z" fill="url(#linear-gradient-5)"/>
    <path id="Path_44843" data-name="Path 44843" d="M491.07,154.943a3.964,3.964,0,0,1,3.67,3.09,2.721,2.721,0,0,1-.6,2.231,3.737,3.737,0,0,1-1.875,1.379c-.181,0-4.105,0-11.345,0H442.135c-8.248,0-10.134,0-10.252,0a3.259,3.259,0,0,1-1.727-1.259,2.74,2.74,0,0,1-.581-2.277,3.944,3.944,0,0,1,3.5-3.165H491.07m0-.332H433.079a4.268,4.268,0,0,0-3.83,3.431c-.491,2.2,1.844,3.9,2.618,3.932.215,0,4.694.005,10.268.005,6.39,0,14.222,0,18.73,0s13.027,0,20.059,0c6.135,0,11.138,0,11.351-.005.776-.036,3.28-1.809,2.789-4.013A4.311,4.311,0,0,0,491.07,154.611Z" fill="#a6a8ab"/>
    <path id="Path_44844" data-name="Path 44844" d="M438.928,99.55a7.1,7.1,0,0,1-3.4-2.292,2.644,2.644,0,0,1-.652-2.154,4.293,4.293,0,0,1,3.668-3.768H485.18a4.268,4.268,0,0,1,3.832,3.672,2.582,2.582,0,0,1-.625,2.1,7.058,7.058,0,0,1-3.426,2.274c-.17,0-23.674,0-23.674,0-6.113,0-14.754.093-19.4.14-1.588.016-2.663.027-2.918.027Z" fill="url(#linear-gradient-6)"/>
    <path id="Path_44845" data-name="Path 44845" d="M485.18,91.5a4.1,4.1,0,0,1,3.67,3.542,2.429,2.429,0,0,1-.592,1.966,7.046,7.046,0,0,1-3.293,2.208c-.176,0-2.487,0-5.744,0l-14.662,0h-3.272c-6.115,0-14.756.093-19.4.14-1.592.017-2.663.028-2.95.028a7.039,7.039,0,0,1-3.281-2.23,2.491,2.491,0,0,1-.619-2.024,4.117,4.117,0,0,1,3.5-3.63H485.18m0-.331H438.545a4.444,4.444,0,0,0-3.83,3.9c-.49,2.507,3.431,4.6,4.207,4.644h.051c.994,0,14.056-.166,22.314-.168,5.18,0,12.754,0,17.934,0,3.261,0,5.572,0,5.75,0,.773-.045,4.695-2.063,4.2-4.569A4.444,4.444,0,0,0,485.18,91.17Z" fill="#a6a8ab"/>
  </g>
</svg>
