<svg xmlns="http://www.w3.org/2000/svg" xmlns:xlink="http://www.w3.org/1999/xlink" width="55.587" height="149.601" viewBox="0 0 55.587 149.601">
  <defs>
    <linearGradient id="linear-gradient" x1="-7.502" y1="8.985" x2="-7.474" y2="8.985" gradientUnits="objectBoundingBox">
      <stop offset="0" stop-color="#cbccce"/>
      <stop offset="0.661" stop-color="#ebecec"/>
      <stop offset="1" stop-color="#fff"/>
    </linearGradient>
    <linearGradient id="linear-gradient-2" x1="-9.594" y1="6.879" x2="-9.558" y2="6.879" xlink:href="#linear-gradient"/>
    <linearGradient id="linear-gradient-3" x1="-5.523" y1="32.261" x2="-5.501" y2="32.261" xlink:href="#linear-gradient"/>
    <linearGradient id="linear-gradient-4" x1="-5.231" y1="8.261" x2="-5.21" y2="8.261" xlink:href="#linear-gradient"/>
    <linearGradient id="linear-gradient-5" x1="-6.233" y1="45.995" x2="-6.209" y2="45.995" xlink:href="#linear-gradient"/>
    <linearGradient id="linear-gradient-6" x1="-9.097" y1="18.268" x2="-9.063" y2="18.268" xlink:href="#linear-gradient"/>
  </defs>
  <g id="Group_41833" data-name="Group 41833" transform="translate(-327.783 -61.944)">
    <path id="Path_44884" data-name="Path 44884" d="M336.361,165.633c4.36-8.83,10.13-21.645,10.614-32h18.16c.491,10.435,6.908,23.859,10.819,32Z" fill="url(#linear-gradient)"/>
    <path id="Path_44885" data-name="Path 44885" d="M365,133.777c.535,10.358,6.82,23.583,10.729,31.714H336.59c4.332-8.8,10-21.438,10.519-31.714H365m.269-.282H346.84c-.44,10.367-6.256,23.284-10.7,32.279h40.042C371.977,157.036,365.709,143.862,365.271,133.495Z" fill="#a6a8ab"/>
    <path id="Path_44886" data-name="Path 44886" d="M345.453,114.361a2.748,2.748,0,0,1,0-5.486h.356l-.262-.244c-4.674-4.377-6.285-12.84-4.5-16.929a42.534,42.534,0,0,1,4.126-6.977c.616-.9,1.228-1.8,1.81-2.717l3.4,7.528c-.005,0,.312,1.471,1.644,1.471a1.017,1.017,0,0,0,.938-.418c.3-.523-.126-1.32-.144-1.354l-4.389-9.64c.677-1.015,1.728-2.551,2.822-4.149.992-1.448,2.017-2.947,2.833-4.152l.088-.133-.143-.072c-1.449-.736-2.182-2.235-2.182-4.455,0-2.806,1.587-4.549,4.143-4.549a4.4,4.4,0,0,1,4.638,4.549,4.751,4.751,0,0,1-2.49,4.455l-.139.072.086.133c1.606,2.387,3.023,4.422,4.291,6.246,3.721,5.353,6.18,8.89,8.48,14.162,1.858,4.255.41,12.577-4.232,16.929l-.262.244h.358a2.748,2.748,0,0,1,0,5.486Z" fill="url(#linear-gradient-2)"/>
    <path id="Path_44887" data-name="Path 44887" d="M355.993,62.227a4.26,4.26,0,0,1,4.5,4.407,4.618,4.618,0,0,1-2.413,4.329l-.283.145.179.264c1.6,2.388,3.031,4.439,4.289,6.249,3.716,5.346,6.172,8.877,8.468,14.139,1.838,4.212.4,12.455-4.2,16.767l-.52.489h.713a2.607,2.607,0,0,1,0,5.2H345.453a2.607,2.607,0,0,1,0-5.2h.713l-.523-.489c-4.633-4.338-6.233-12.721-4.471-16.767a42.5,42.5,0,0,1,4.117-6.956c.555-.815,1.127-1.653,1.672-2.5l3.281,7.262a1.916,1.916,0,0,0,1.787,1.582h.057a1.1,1.1,0,0,0,1-.49,1.722,1.722,0,0,0-.134-1.472l-4.359-9.578c.677-1.014,1.708-2.519,2.778-4.082.992-1.449,2.019-2.947,2.832-4.154l.178-.264-.283-.145c-1.4-.71-2.108-2.166-2.108-4.329,0-2.76,1.5-4.407,4-4.407m0-.283c-2.7,0-4.284,1.844-4.284,4.69,0,2.045.623,3.749,2.26,4.581-1.73,2.565-4.424,6.454-5.7,8.368L352.7,89.3s.824,1.518-.619,1.562h-.051c-1.24,0-1.517-1.386-1.517-1.386L347,81.711c-2.024,3.229-4.452,6.189-6.087,9.934-1.916,4.4-.025,12.818,4.537,17.088a2.889,2.889,0,0,0,0,5.769h21.268a2.889,2.889,0,0,0,0-5.769c4.558-4.27,6.183-12.693,4.267-17.088-3.094-7.082-6.459-11.025-12.785-20.43a4.918,4.918,0,0,0,2.567-4.581A4.547,4.547,0,0,0,355.993,61.944Z" fill="#a6a8ab"/>
    <path id="Path_44888" data-name="Path 44888" d="M329.174,211.4a17.932,17.932,0,0,1,.449-4.037,7.9,7.9,0,0,1,1.756-2.658l48.222.04a8.751,8.751,0,0,1,1.666,2.712,22.952,22.952,0,0,1,.5,3.943Z" fill="url(#linear-gradient-3)"/>
    <path id="Path_44889" data-name="Path 44889" d="M379.537,204.89a8.475,8.475,0,0,1,1.594,2.61,21.859,21.859,0,0,1,.486,3.763h-52.3a17.1,17.1,0,0,1,.442-3.852,7.558,7.558,0,0,1,1.638-2.521h48.141m.129-.282H331.279a8.025,8.025,0,0,0-1.791,2.716,19.175,19.175,0,0,0-.459,4.221h52.887a24.4,24.4,0,0,0-.515-4.124A9.1,9.1,0,0,0,379.666,204.608Z" fill="#a6a8ab"/>
    <path id="Path_44890" data-name="Path 44890" d="M331.668,203.5a27.225,27.225,0,0,1-3.713-14.5c.232-4.314,2.54-8.616,4.574-12.411.563-1.05,1.1-2.055,1.562-3h43.253q.381.749.781,1.521c2.271,4.4,4.846,9.385,5.082,14.4.208,4.446-1.113,9.153-3.93,13.992Z" fill="url(#linear-gradient-4)"/>
    <path id="Path_44891" data-name="Path 44891" d="M377.258,173.728c.242.473.49.956.742,1.445,2.264,4.386,4.832,9.356,5.068,14.343.206,4.395-1.1,9.053-3.871,13.843H331.748A27.059,27.059,0,0,1,328.1,189c.232-4.282,2.529-8.569,4.556-12.352.552-1.027,1.074-2,1.527-2.924h43.079m.174-.283H334c-2.1,4.336-5.886,9.953-6.189,15.544a27.281,27.281,0,0,0,3.771,14.653h47.774c2.133-3.647,4.248-8.634,3.989-14.14C383.082,183.834,379.851,178.214,377.432,173.445Z" fill="#a6a8ab"/>
    <path id="Path_44892" data-name="Path 44892" d="M334.209,172.34a2.323,2.323,0,0,1-1.213-.906,2.492,2.492,0,0,1-.534-2.026,3.019,3.019,0,0,1,2.611-2.589h41.655a3.015,3.015,0,0,1,2.733,2.523,2.491,2.491,0,0,1-.551,2.006,2.581,2.581,0,0,1-1.322.992c-.125,0-2.794,0-6.334,0C371.254,172.343,334.338,172.342,334.209,172.34Z" fill="url(#linear-gradient-5)"/>
    <path id="Path_44893" data-name="Path 44893" d="M376.728,166.96a2.868,2.868,0,0,1,2.6,2.411,2.353,2.353,0,0,1-.526,1.891,2.588,2.588,0,0,1-1.206.938c-.08,0-1.244,0-6.331,0l-16.225,0-15.1,0c-4.583,0-5.642,0-5.708,0a2.263,2.263,0,0,1-1.117-.852,2.354,2.354,0,0,1-.506-1.915,2.87,2.87,0,0,1,2.472-2.473h41.655m0-.282H335.073a3.154,3.154,0,0,0-2.751,2.7,2.871,2.871,0,0,0,1.884,3.1c.13,0,2.519,0,5.726,0l15.1,0,16.225,0c3.538,0,6.2,0,6.336,0a3.022,3.022,0,0,0,2-3.166A3.162,3.162,0,0,0,376.728,166.678Z" fill="#a6a8ab"/>
    <path id="Path_44894" data-name="Path 44894" d="M342.527,132.244c-.308-.034-2.763-1.414-2.547-3.6a4.393,4.393,0,0,1,3.1-3.756h2.473V115.5h21v9.389h3.436a4.681,4.681,0,0,1,2.957,3.952c.226,2.272-2.2,3.381-2.415,3.4-.078,0-2.082,0-4.641,0Z" fill="url(#linear-gradient-6)"/>
    <path id="Path_44895" data-name="Path 44895" d="M366.414,115.642v9.387h3.568a4.563,4.563,0,0,1,2.827,3.826c.208,2.124-2.084,3.217-2.266,3.249-.08,0-1.774,0-4.651,0l-9.916,0-9.24,0H342.56c-.33-.06-2.641-1.411-2.437-3.449a4.216,4.216,0,0,1,2.959-3.627H345.7v-9.387h20.719m.282-.283H345.414v9.389h-2.332a4.482,4.482,0,0,0-3.242,3.882c-.227,2.285,2.324,3.715,2.685,3.756.091,0,1.887,0,4.211,0,3.051,0,7.018,0,9.24,0s6.553,0,9.916,0c2.561,0,4.566,0,4.657,0,.361-.041,2.764-1.273,2.54-3.558a4.777,4.777,0,0,0-3.1-4.08H366.7Z" fill="#a6a8ab"/>
    <path id="Path_44896" data-name="Path 44896" d="M336.361,165.633c4.36-8.83,10.13-21.645,10.614-32h18.16c.491,10.435,6.908,23.859,10.819,32Z" fill="url(#linear-gradient)"/>
    <path id="Path_44897" data-name="Path 44897" d="M365,133.777c.535,10.358,6.82,23.583,10.729,31.714H336.59c4.332-8.8,10-21.438,10.519-31.714H365m.269-.282H346.84c-.44,10.367-6.256,23.284-10.7,32.279h40.042C371.977,157.036,365.709,143.862,365.271,133.495Z" fill="#a6a8ab"/>
    <path id="Path_44898" data-name="Path 44898" d="M329.174,211.4a17.932,17.932,0,0,1,.449-4.037,7.9,7.9,0,0,1,1.756-2.658l48.222.04a8.751,8.751,0,0,1,1.666,2.712,22.952,22.952,0,0,1,.5,3.943Z" fill="url(#linear-gradient-3)"/>
    <path id="Path_44899" data-name="Path 44899" d="M379.537,204.89a8.475,8.475,0,0,1,1.594,2.61,21.859,21.859,0,0,1,.486,3.763h-52.3a17.1,17.1,0,0,1,.442-3.852,7.558,7.558,0,0,1,1.638-2.521h48.141m.129-.282H331.279a8.025,8.025,0,0,0-1.791,2.716,19.175,19.175,0,0,0-.459,4.221h52.887a24.4,24.4,0,0,0-.515-4.124A9.1,9.1,0,0,0,379.666,204.608Z" fill="#a6a8ab"/>
    <path id="Path_44900" data-name="Path 44900" d="M331.668,203.5a27.225,27.225,0,0,1-3.713-14.5c.232-4.314,2.54-8.616,4.574-12.411.563-1.05,1.1-2.055,1.562-3h43.253q.381.749.781,1.521c2.271,4.4,4.846,9.385,5.082,14.4.208,4.446-1.113,9.153-3.93,13.992Z" fill="url(#linear-gradient-4)"/>
    <path id="Path_44901" data-name="Path 44901" d="M377.258,173.728c.242.473.49.956.742,1.445,2.264,4.386,4.832,9.356,5.068,14.343.206,4.395-1.1,9.053-3.871,13.843H331.748A27.059,27.059,0,0,1,328.1,189c.232-4.282,2.529-8.569,4.556-12.352.552-1.027,1.074-2,1.527-2.924h43.079m.174-.283H334c-2.1,4.336-5.886,9.953-6.189,15.544a27.281,27.281,0,0,0,3.771,14.653h47.774c2.133-3.647,4.248-8.634,3.989-14.14C383.082,183.834,379.851,178.214,377.432,173.445Z" fill="#a6a8ab"/>
    <path id="Path_44902" data-name="Path 44902" d="M334.209,172.34a2.323,2.323,0,0,1-1.213-.906,2.492,2.492,0,0,1-.534-2.026,3.019,3.019,0,0,1,2.611-2.589h41.655a3.015,3.015,0,0,1,2.733,2.523,2.491,2.491,0,0,1-.551,2.006,2.581,2.581,0,0,1-1.322.992c-.125,0-2.794,0-6.334,0C371.254,172.343,334.338,172.342,334.209,172.34Z" fill="url(#linear-gradient-5)"/>
    <path id="Path_44903" data-name="Path 44903" d="M376.728,166.96a2.868,2.868,0,0,1,2.6,2.411,2.353,2.353,0,0,1-.526,1.891,2.588,2.588,0,0,1-1.206.938c-.08,0-1.244,0-6.331,0l-16.225,0-15.1,0c-4.583,0-5.642,0-5.708,0a2.263,2.263,0,0,1-1.117-.852,2.354,2.354,0,0,1-.506-1.915,2.87,2.87,0,0,1,2.472-2.473h41.655m0-.282H335.073a3.154,3.154,0,0,0-2.751,2.7,2.871,2.871,0,0,0,1.884,3.1c.13,0,2.519,0,5.726,0l15.1,0,16.225,0c3.538,0,6.2,0,6.336,0a3.022,3.022,0,0,0,2-3.166A3.162,3.162,0,0,0,376.728,166.678Z" fill="#a6a8ab"/>
    <path id="Path_44904" data-name="Path 44904" d="M342.527,132.244c-.308-.034-2.763-1.414-2.547-3.6a4.393,4.393,0,0,1,3.1-3.756h2.473V115.5h21v9.389h3.436a4.681,4.681,0,0,1,2.957,3.952c.226,2.272-2.2,3.381-2.415,3.4-.078,0-2.082,0-4.641,0Z" fill="url(#linear-gradient-6)"/>
    <path id="Path_44905" data-name="Path 44905" d="M366.414,115.642v9.387h3.568a4.563,4.563,0,0,1,2.827,3.826c.208,2.124-2.084,3.217-2.266,3.249-.08,0-1.774,0-4.651,0l-9.916,0-9.24,0H342.56c-.33-.06-2.641-1.411-2.437-3.449a4.216,4.216,0,0,1,2.959-3.627H345.7v-9.387h20.719m.282-.283H345.414v9.389h-2.332a4.482,4.482,0,0,0-3.242,3.882c-.227,2.285,2.324,3.715,2.685,3.756.091,0,1.887,0,4.211,0,3.051,0,7.018,0,9.24,0s6.553,0,9.916,0c2.561,0,4.566,0,4.657,0,.361-.041,2.764-1.273,2.54-3.558a4.777,4.777,0,0,0-3.1-4.08H366.7Z" fill="#a6a8ab"/>
  </g>
</svg>
