<svg xmlns="http://www.w3.org/2000/svg" xmlns:xlink="http://www.w3.org/1999/xlink" width="76.238" height="149.601" viewBox="0 0 76.238 149.601">
  <defs>
    <linearGradient id="linear-gradient" x1="-6.597" y1="3.541" x2="-6.58" y2="3.541" gradientUnits="objectBoundingBox">
      <stop offset="0" stop-color="#cbccce"/>
      <stop offset="0.661" stop-color="#ebecec"/>
      <stop offset="1" stop-color="#fff"/>
    </linearGradient>
    <linearGradient id="linear-gradient-2" x1="-8.016" y1="31.158" x2="-7.996" y2="31.158" xlink:href="#linear-gradient"/>
    <linearGradient id="linear-gradient-3" x1="-7.811" y1="7.993" x2="-7.791" y2="7.993" xlink:href="#linear-gradient"/>
    <linearGradient id="linear-gradient-4" x1="-9.288" y1="44.695" x2="-9.265" y2="44.695" xlink:href="#linear-gradient"/>
  </defs>
  <g id="Group_41829" data-name="Group 41829" transform="translate(-540.3 -61.944)">
    <path id="Path_44808" data-name="Path 44808" d="M549.267,163.476c-10.468-14.3-15.707-73.7,8.424-91.708a36.144,36.144,0,0,1,20.948-6.714,26.013,26.013,0,0,1,7.777,1.092l.1.032.068-.08a25.485,25.485,0,0,1,4.363-3.949c3.67,3.2,2.86,5.139,2.07,7.014-.166.4-.332.8-.453,1.2l-.037.126.117.062c1.206.632,4.221,2.632,6.207,7.549,2.147,5.3,8.668,13.209,13.68,16.594,5.485,3.7,4.078,6.442,2.135,10.231a28.957,28.957,0,0,1-5.123,7A17.271,17.271,0,0,1,606.66,110a13.683,13.683,0,0,0-3.932-2.334,14.066,14.066,0,0,0-5.029-.821,28.882,28.882,0,0,0-7.529,1.125,11.575,11.575,0,0,1-3.031.444c-6.864,0-7.346-7.77-7.379-8.655a1.6,1.6,0,0,0-1.409-1.726c-.646,0-1.416.573-1.46,2.192-.422,15.9,11.423,32.834,22.638,41.869l-2.681,21.381Z" fill="url(#linear-gradient)"/>
    <path id="Path_44809" data-name="Path 44809" d="M590.939,62.354c3.475,3.073,2.725,4.858,1.932,6.748-.164.393-.334.8-.459,1.212l-.076.253.234.122c1.188.625,4.166,2.6,6.135,7.467,2.154,5.323,8.7,13.268,13.736,16.667,5.366,3.625,3.989,6.31,2.082,10.026a28.976,28.976,0,0,1-5.009,6.878,17.284,17.284,0,0,1-2.754-1.852,13.829,13.829,0,0,0-3.975-2.357,14.219,14.219,0,0,0-5.086-.832,29.029,29.029,0,0,0-7.572,1.13,11.4,11.4,0,0,1-2.988.438c-6.713,0-7.188-7.63-7.219-8.5a1.749,1.749,0,0,0-1.569-1.88c-.718,0-1.574.614-1.619,2.347-.425,15.924,11.405,32.869,22.625,41.942l-2.65,21.151H549.35c-10.413-14.375-15.594-73.486,8.437-91.419a35.976,35.976,0,0,1,20.852-6.681,25.823,25.823,0,0,1,7.726,1.085l.2.064.141-.161a25.158,25.158,0,0,1,4.232-3.848m.018-.41a25.944,25.944,0,0,0-4.494,4.05,26.015,26.015,0,0,0-7.824-1.1,36.251,36.251,0,0,0-21.045,6.746c-24.313,18.143-18.827,77.925-8.407,92h47.8l2.709-21.61c-11.18-8.979-23.07-25.85-22.646-41.8.037-1.419.674-2.036,1.3-2.036s1.211.582,1.249,1.574c.121,3.335,1.8,8.807,7.539,8.807a11.714,11.714,0,0,0,3.076-.449,28.949,28.949,0,0,1,7.484-1.119,13.919,13.919,0,0,1,4.971.811c3.277,1.256,3.918,2.784,6.9,4.3A28.662,28.662,0,0,0,614.809,105c2.021-3.94,3.291-6.737-2.188-10.435C607.8,91.308,601.23,83.543,599,78.036a14.611,14.611,0,0,0-6.281-7.629C593.424,68.084,595.619,65.955,590.957,61.944Z" fill="#a6a8ab"/>
    <path id="Path_44810" data-name="Path 44810" d="M541.24,211.385a15.092,15.092,0,0,1,.578-4.176,8.482,8.482,0,0,1,2.278-2.764l56.884.034a10.7,10.7,0,0,1,2.11,2.827,19.222,19.222,0,0,1,.644,4.079Z" fill="url(#linear-gradient-2)"/>
    <path id="Path_44811" data-name="Path 44811" d="M600.859,204.64a8.829,8.829,0,0,1,2.08,2.719,18.383,18.383,0,0,1,.625,3.866H541.4a14.326,14.326,0,0,1,.565-3.956,8.039,8.039,0,0,1,2.144-2.629h56.748m.123-.321H544a8.585,8.585,0,0,0-2.328,2.83,16.014,16.014,0,0,0-.594,4.4h62.83a20.721,20.721,0,0,0-.666-4.294A9.578,9.578,0,0,0,600.982,204.319Z" fill="#a6a8ab"/>
    <path id="Path_44812" data-name="Path 44812" d="M544.475,203.061a23.71,23.71,0,0,1-3.956-15.081c.344-5.086,3.549-10.277,6.122-14.449.339-.548.668-1.082.98-1.6h50.373c2.27,3.592,6.076,10.532,6.469,17.174a20.8,20.8,0,0,1-3.959,13.953Z" fill="url(#linear-gradient-3)"/>
    <path id="Path_44813" data-name="Path 44813" d="M597.906,172.094c2.266,3.6,6.008,10.463,6.4,17.024a20.645,20.645,0,0,1-3.881,13.783H544.557a23.577,23.577,0,0,1-3.877-14.91c.339-5.048,3.533-10.22,6.1-14.376q.484-.782.934-1.521h50.2m.176-.32H547.531c-2.728,4.515-6.779,10.374-7.172,16.2a23.792,23.792,0,0,0,4.033,15.251h56.194a21.044,21.044,0,0,0,4.037-14.122C604.273,183.2,601.23,176.741,598.082,171.774Z" fill="#a6a8ab"/>
    <path id="Path_44814" data-name="Path 44814" d="M547.8,170.705a2.725,2.725,0,0,1-1.869-3.092,3.247,3.247,0,0,1,2.992-2.634h48.25a3.246,3.246,0,0,1,3,2.63,2.722,2.722,0,0,1-1.875,3.1c-.176,0-3.627,0-8.147,0C590.144,170.707,547.978,170.707,547.8,170.705Z" fill="url(#linear-gradient-4)"/>
    <path id="Path_44815" data-name="Path 44815" d="M597.17,165.14a3.083,3.083,0,0,1,2.842,2.513,2.589,2.589,0,0,1-1.717,2.892c-.182,0-3.639,0-8.162,0l-18.879,0-16.674,0c-3.785,0-6.6,0-6.77,0a2.58,2.58,0,0,1-1.726-2.9,3.082,3.082,0,0,1,2.836-2.506h48.25m0-.32H548.92a3.415,3.415,0,0,0-3.149,2.754,2.878,2.878,0,0,0,2.026,3.291h50.5a2.876,2.876,0,0,0,2.025-3.291A3.413,3.413,0,0,0,597.17,164.82Z" fill="#a6a8ab"/>
    <path id="Path_44816" data-name="Path 44816" d="M549.267,163.476c-10.468-14.3-15.707-73.7,8.424-91.708a36.144,36.144,0,0,1,20.948-6.714,26.013,26.013,0,0,1,7.777,1.092l.1.032.068-.08a25.485,25.485,0,0,1,4.363-3.949c3.67,3.2,2.86,5.139,2.07,7.014-.166.4-.332.8-.453,1.2l-.037.126.117.062c1.206.632,4.221,2.632,6.207,7.549,2.147,5.3,8.668,13.209,13.68,16.594,5.485,3.7,4.078,6.442,2.135,10.231a28.957,28.957,0,0,1-5.123,7A17.271,17.271,0,0,1,606.66,110a13.683,13.683,0,0,0-3.932-2.334,14.066,14.066,0,0,0-5.029-.821,28.882,28.882,0,0,0-7.529,1.125,11.575,11.575,0,0,1-3.031.444c-6.864,0-7.346-7.77-7.379-8.655a1.6,1.6,0,0,0-1.409-1.726c-.646,0-1.416.573-1.46,2.192-.422,15.9,11.423,32.834,22.638,41.869l-2.681,21.381Z" fill="url(#linear-gradient)"/>
    <path id="Path_44817" data-name="Path 44817" d="M590.939,62.354c3.475,3.073,2.725,4.858,1.932,6.748-.164.393-.334.8-.459,1.212l-.076.253.234.122c1.188.625,4.166,2.6,6.135,7.467,2.154,5.323,8.7,13.268,13.736,16.667,5.366,3.625,3.989,6.31,2.082,10.026a28.976,28.976,0,0,1-5.009,6.878,17.284,17.284,0,0,1-2.754-1.852,13.829,13.829,0,0,0-3.975-2.357,14.219,14.219,0,0,0-5.086-.832,29.029,29.029,0,0,0-7.572,1.13,11.4,11.4,0,0,1-2.988.438c-6.713,0-7.188-7.63-7.219-8.5a1.749,1.749,0,0,0-1.569-1.88c-.718,0-1.574.614-1.619,2.347-.425,15.924,11.405,32.869,22.625,41.942l-2.65,21.151H549.35c-10.413-14.375-15.594-73.486,8.437-91.419a35.976,35.976,0,0,1,20.852-6.681,25.823,25.823,0,0,1,7.726,1.085l.2.064.141-.161a25.158,25.158,0,0,1,4.232-3.848m.018-.41a25.944,25.944,0,0,0-4.494,4.05,26.015,26.015,0,0,0-7.824-1.1,36.251,36.251,0,0,0-21.045,6.746c-24.313,18.143-18.827,77.925-8.407,92h47.8l2.709-21.61c-11.18-8.979-23.07-25.85-22.646-41.8.037-1.419.674-2.036,1.3-2.036s1.211.582,1.249,1.574c.121,3.335,1.8,8.807,7.539,8.807a11.714,11.714,0,0,0,3.076-.449,28.949,28.949,0,0,1,7.484-1.119,13.919,13.919,0,0,1,4.971.811c3.277,1.256,3.918,2.784,6.9,4.3A28.662,28.662,0,0,0,614.809,105c2.021-3.94,3.291-6.737-2.188-10.435C607.8,91.308,601.23,83.543,599,78.036a14.611,14.611,0,0,0-6.281-7.629C593.424,68.084,595.619,65.955,590.957,61.944Z" fill="#a6a8ab"/>
    <path id="Path_44818" data-name="Path 44818" d="M541.24,211.385a15.092,15.092,0,0,1,.578-4.176,8.482,8.482,0,0,1,2.278-2.764l56.884.034a10.7,10.7,0,0,1,2.11,2.827,19.222,19.222,0,0,1,.644,4.079Z" fill="url(#linear-gradient-2)"/>
    <path id="Path_44819" data-name="Path 44819" d="M600.859,204.64a8.829,8.829,0,0,1,2.08,2.719,18.383,18.383,0,0,1,.625,3.866H541.4a14.326,14.326,0,0,1,.565-3.956,8.039,8.039,0,0,1,2.144-2.629h56.748m.123-.321H544a8.585,8.585,0,0,0-2.328,2.83,16.014,16.014,0,0,0-.594,4.4h62.83a20.721,20.721,0,0,0-.666-4.294A9.578,9.578,0,0,0,600.982,204.319Z" fill="#a6a8ab"/>
    <path id="Path_44820" data-name="Path 44820" d="M544.475,203.061a23.71,23.71,0,0,1-3.956-15.081c.344-5.086,3.549-10.277,6.122-14.449.339-.548.668-1.082.98-1.6h50.373c2.27,3.592,6.076,10.532,6.469,17.174a20.8,20.8,0,0,1-3.959,13.953Z" fill="url(#linear-gradient-3)"/>
    <path id="Path_44821" data-name="Path 44821" d="M597.906,172.094c2.266,3.6,6.008,10.463,6.4,17.024a20.645,20.645,0,0,1-3.881,13.783H544.557a23.577,23.577,0,0,1-3.877-14.91c.339-5.048,3.533-10.22,6.1-14.376q.484-.782.934-1.521h50.2m.176-.32H547.531c-2.728,4.515-6.779,10.374-7.172,16.2a23.792,23.792,0,0,0,4.033,15.251h56.194a21.044,21.044,0,0,0,4.037-14.122C604.273,183.2,601.23,176.741,598.082,171.774Z" fill="#a6a8ab"/>
    <path id="Path_44822" data-name="Path 44822" d="M547.8,170.705a2.725,2.725,0,0,1-1.869-3.092,3.247,3.247,0,0,1,2.992-2.634h48.25a3.246,3.246,0,0,1,3,2.63,2.722,2.722,0,0,1-1.875,3.1c-.176,0-3.627,0-8.147,0C590.144,170.707,547.978,170.707,547.8,170.705Z" fill="url(#linear-gradient-4)"/>
    <path id="Path_44823" data-name="Path 44823" d="M597.17,165.14a3.083,3.083,0,0,1,2.842,2.513,2.589,2.589,0,0,1-1.717,2.892c-.182,0-3.639,0-8.162,0l-18.879,0-16.674,0c-3.785,0-6.6,0-6.77,0a2.58,2.58,0,0,1-1.726-2.9,3.082,3.082,0,0,1,2.836-2.506h48.25m0-.32H548.92a3.415,3.415,0,0,0-3.149,2.754,2.878,2.878,0,0,0,2.026,3.291h50.5a2.876,2.876,0,0,0,2.025-3.291A3.413,3.413,0,0,0,597.17,164.82Z" fill="#a6a8ab"/>
  </g>
</svg>
